<?xml version="1.0"?><svg width="640" height="480" xmlns="http://www.w3.org/2000/svg">
 <title>backpack</title>
 <g>
  <title>Layer 1</title>
  <path clip-rule="evenodd" d="m171.529999,473.718994c5.723999,-1.080017 13.751999,-1.438995 24.371994,-1.080017c10.619003,0.359009 39.238998,1.47702 39.060013,3.205017c-0.468002,1.618988 -13.860001,3.707001 -41.004013,6.406006c17.712006,-2.339996 24.300003,-4.175995 20.448013,-5.650024c-4.104004,-1.513977 -18.64801,-2.628998 -44.31601,-3.349976l1.440002,0.468994z" fill-rule="evenodd" stroke="#000000" stroke-miterlimit="10" stroke-width="0.036" id="svg_3"/>
  <path fill="#ffffff" clip-rule="evenodd" d="m111.882004,391.795013c-1.764008,0.468994 -3.708,1.800995 -5.544006,3.85199c-1.871994,2.016022 -3.923996,4.895996 -5.867996,8.496002l0,8.31601c-0.468002,-2.988007 -1.908005,-5.399994 -4.464005,-7.235992c-2.699997,-1.90802 -6.623993,-4.64502 -10.800003,-4.031006c-4.21199,0.575989 -12.131981,1.798981 -13.895996,7.270996c-1.871994,5.507996 1.332001,18.324005 3.240005,24.984009c1.944,6.442993 4.895996,9.718994 8.028,13.571991c2.988007,3.743988 7.056,5.579987 9.863998,8.817993c2.628006,3.167999 2.844002,8.460999 6.335999,10.188995c3.528,1.546997 10.584,1.295013 14.220001,-0.468994c3.419998,-1.835999 5.472,-6.480011 6.442986,-10.187988c0.828011,-3.779022 0.576012,-7.667999 -1.043983,-12.061005c0.863998,-1.656006 1.367996,-3.707001 1.513,-6.011993c0.070999,-2.412018 0.611,-5.363007 -0.900017,-8.171997c-1.547974,-2.881012 -4.427986,-5.76001 -8.495979,-8.78302c0.395996,-1.765991 0.647995,-3.421997 0.612,-5.113007c-0.072006,-1.655975 -0.432007,-3.347992 -0.937004,-4.931976c0.251984,-2.232025 1.584,-4.572021 3.853004,-7.416016c2.26799,-2.843994 5.472,-5.97699 9.755989,-9.395996c-3.959999,-0.537018 -7.919983,-1.113007 -11.915993,-1.688995z" fill-rule="evenodd" stroke="#000000" stroke-miterlimit="10" stroke-width="0.036" id="svg_10"/>
  <path clip-rule="evenodd" d="m102.629997,434.05899c0.072006,-1.225006 0.072006,-3.02301 0,-5.399994c-0.215996,-2.447021 -0.64801,-6.623016 -0.756004,-8.928009c-0.14399,-2.268005 -0.14399,-3.600006 0,-4.96701c0.072006,-1.513977 -0.612,-3.491974 0.467995,-3.996002c1.008026,-0.685974 4.104012,-0.720978 5.400009,0.46701c0.972,1.152008 1.008011,3.744019 1.366997,6.949005c0.359993,3.131012 0.973007,9.179993 1.261017,11.878998c0.287987,2.628998 0.432007,3.81601 0.432007,3.709015c-2.556,1.332001 -4.5,2.050995 -5.832001,2.159973c-1.332016,0.000031 -2.160019,-0.576965 -2.340019,-1.872986z" fill="#FFFFFF" fill-rule="evenodd" stroke="#000000" stroke-miterlimit="10" stroke-width="0.036" id="svg_11"/>
  <path clip-rule="evenodd" d="m99.246002,411.378998c-3.384003,-3.889008 -6.624016,-6.40799 -9.720001,-7.561005c-3.276001,-1.222992 -6.408005,-0.324005 -9.108002,0.613007c-2.664001,0.828003 -5.940002,0.432007 -6.623993,4.643005c-0.719994,4.175995 0.32399,13.824005 2.160004,20.053009c1.727997,6.011993 5.003998,12.384979 8.027977,16.198975c2.916023,3.709015 5.868027,5.725006 9.252007,6.193024c0.14402,1.259979 0.75602,2.770996 1.836014,4.931976c0.935989,2.051025 1.727989,6.516022 4.463989,7.561005c2.736,0.863007 9.252007,-0.505981 12.205002,-2.018005c2.770988,-1.583984 4.248001,-4.462982 5.111015,-7.233978c0.82798,-2.953003 0.82798,-6.121002 0,-9.900024c-2.08802,4.031006 -4.355011,6.047028 -6.804001,6.336029c-2.59201,0.179993 -6.480026,-1.512024 -8.17202,-5.076019c-1.763992,-3.708984 -2.483994,-9.036987 -2.159981,-16.52301l0.287987,-3.384979c-2.087997,3.167999 -3.779999,5.221008 -5.220001,6.156006c-1.475998,0.862976 -3.311996,1.259979 -3.419998,-0.756012c-0.072006,-2.196991 0.755997,-6.011993 2.772003,-11.881012c-2.520004,3.81601 -4.464005,6.049011 -5.832001,7.09201c-1.511993,0.86499 -2.484009,0.21701 -2.484009,-1.403992c0.036003,-1.764008 1.044006,-6.264008 2.628006,-8.639008c1.512009,-2.484009 4.787994,-5.075989 6.335999,-5.399994c1.440002,-0.287018 2.160004,0.899994 2.304001,3.707001l2.447998,0c-0.071983,-1.223999 -0.18,-2.447998 -0.287994,-3.708008z" fill="#ffffff" fill-rule="evenodd" stroke="#000000" stroke-miterlimit="10" stroke-width="0.036" id="svg_12"/>
  <path clip-rule="evenodd" d="m93.522003,414.006012c-0.755997,0.324005 -3.348,3.854004 -4.32,5.725006c-1.079994,1.835999 -2.196007,5.292999 -1.548012,5.075989c0.612,-0.432007 4.17601,-5.436005 5.256012,-7.235992c0.935989,-1.909027 1.188004,-3.925018 0.612,-3.565002z" fill="#FFFFFF" fill-rule="evenodd" stroke="#000000" stroke-miterlimit="10" stroke-width="0.036" id="svg_13"/>
  <path clip-rule="evenodd" d="m98.166,418.471008c-1.944,3.096008 -3.276001,5.725006 -3.851997,7.73999c-0.68399,2.016022 -0.68399,4.752014 0.14399,4.320007c0.756004,-0.613007 2.304001,-2.953003 4.644005,-7.415985l0.288002,-5.725006c-0.395996,0.359985 -0.791992,0.720978 -1.223999,1.080994z" fill="#FFFFFF" fill-rule="evenodd" stroke="#000000" stroke-miterlimit="10" stroke-width="0.036" id="svg_14"/>
  <path clip-rule="evenodd" d="m102.017998,435.932007c1.080002,1.835999 2.520004,2.664001 4.32,2.626984c1.836006,-0.144989 5.148003,-1.367004 6.192001,-3.095978c0.899002,-1.801025 0.683998,-4.176025 -0.647995,-7.271027l-0.900002,-5.075989c1.907997,0.214996 3.312996,1.656006 4.607994,4.320007c1.188004,2.664001 3.313004,7.954987 2.628006,11.411987c-0.936005,3.311005 -4.968002,6.981995 -7.236,8.496002c-2.304001,1.367004 -4.644005,1.042999 -6.191002,0c-1.692001,-1.225006 -2.916,-4.93399 -3.384003,-6.804993c-0.504997,-1.980011 -0.252998,-3.420013 0.611,-4.606995l0,0z" fill="#ffffff" fill-rule="evenodd" stroke="#000000" stroke-miterlimit="10" stroke-width="0.036" id="svg_15"/>
  <path clip-rule="evenodd" d="m103.098007,403.207001c-1.152,2.304993 -0.936005,5.075989 -0.936005,5.075989c0.684006,-0.503998 1.62001,-0.755981 2.808014,-0.612976c1.079987,0.071991 2.411987,0.540985 3.995987,1.261993c2.880005,-4.572021 5.400009,-7.850006 7.70401,-10.369019c2.26799,-2.483978 4.175995,-3.923981 5.867996,-4.319977l-11.412003,-1.223022l-5.255997,5.867004c-0.000023,0 -1.62001,2.015015 -2.772003,4.320007z" fill="#ffffff" fill-rule="evenodd" stroke="#000000" stroke-miterlimit="10" stroke-width="0.036" id="svg_16"/>
  <path fill="#ffffff" clip-rule="evenodd" d="m173.802002,392.406006c0.360001,2.484009 0.251999,5.256012 -0.324005,8.31601c-0.610992,3.096008 -1.690994,6.300995 -3.238998,10.044983c-0.539993,-1.116974 -1.261002,-0.86499 -2.160004,0.756012c-0.972992,1.618988 -2.052994,4.463013 -3.383987,8.820007c-2.736008,-0.64801 -4.896011,-0.289001 -6.337006,1.222992c-1.548004,1.511993 -2.376007,3.889008 -2.628006,7.561005c-2.519989,2.699005 -4.319,5.221008 -5.543991,7.703003c-1.223999,2.483978 -1.835999,4.682007 -1.835999,6.983978c-2.987,3.16803 -4.284012,6.121002 -4.031006,9.396027c0.179993,3.095978 2.591995,7.703003 5.436005,9.539001c2.843994,1.692993 6.119995,-0.070007 11.483994,1.224976c5.220001,1.296997 14.832001,6.156006 19.943008,6.516022c5.039993,0.179993 8.028,-2.016022 10.367996,-4.932007c2.231995,-3.061005 3.491989,-9.215027 3.239975,-12.347992c-0.432983,-2.988007 -3.527985,-4.572021 -5.111984,-5.867004c-1.690994,-1.44101 -2.304001,-0.973022 -4.319992,-2.628998c-2.052002,-1.729004 -4.570999,-4.248016 -7.703003,-7.561005c0.468002,-3.203003 0.574997,-5.832001 0.468002,-7.882996c-0.108002,-2.160004 -0.576004,-3.563995 -1.259995,-4.609009c1.29599,-2.446991 2.123993,-4.606995 2.627991,-6.479004c0.468002,-1.980011 0.468002,-3.528992 0.143997,-4.93399c1.656006,-6.550995 2.700012,-11.268005 3.276001,-14.688019c0.503998,-3.382996 0.396011,-5.18399 -0.181,-5.399994c-2.951996,-0.25 -5.940002,-0.502014 -8.927994,-0.753998z" fill-rule="evenodd" stroke="#000000" stroke-miterlimit="10" stroke-width="0.036" id="svg_17"/>
  <path clip-rule="evenodd" d="m175.350006,436.687988c1.044006,-3.924011 1.044006,-6.876984 0,-9.251984c-1.043991,-2.377014 -4.030991,-3.924011 -6.335999,-4.789001c-2.520004,-1.042999 -6.263992,-1.764008 -8.171997,-0.756012c-1.871994,1.11499 -2.951996,3.347992 -3.095993,7.09201c4.5,0.828003 8.062988,1.90799 11.087997,3.23999c2.951981,1.296997 5.075989,2.736023 6.515991,4.464996z" fill="#ffffff" fill-rule="evenodd" stroke="#000000" stroke-miterlimit="10" stroke-width="0.036" id="svg_18"/>
  <path clip-rule="evenodd" d="m166.529999,420.343994c0.503998,-2.160004 0.972,-3.781006 1.548004,-5.257996c0.503998,-1.475006 0.610992,-2.878998 1.690994,-3.382996c0.973007,-0.576019 2.736008,-0.576019 4.320007,0c1.403992,0.46698 4.248001,1.366974 4.644989,3.382996c0.323013,1.97998 -0.50499,4.860992 -2.483994,8.640991c-0.863998,-0.214996 -2.052002,-0.721008 -3.707993,-1.225006c-1.692001,-0.573975 -3.601013,-1.294983 -6.012009,-2.15799z" fill="#FFFFFF" fill-rule="evenodd" stroke="#000000" stroke-miterlimit="10" stroke-width="0.036" id="svg_19"/>
  <path clip-rule="evenodd" d="m172.722,409.687988c0.647995,-0.289001 1.332001,-0.144989 2.447998,0.286987c1.044006,0.396027 2.231995,1.225006 3.708008,2.340027c1.439987,-4.104004 2.519989,-7.561005 3.095993,-10.656006c0.503998,-3.131012 0.647995,-5.652008 0.287994,-7.703003l-7.091995,-0.324005c-0.108002,4.067993 -0.360001,7.270996 -0.755997,10.042999c-0.468002,2.628021 -0.936005,4.680023 -1.692001,6.013z" fill="#ffffff" fill-rule="evenodd" stroke="#000000" stroke-miterlimit="10" stroke-width="0.036" id="svg_20"/>
  <path clip-rule="evenodd" d="m173.802002,437.910004c-3.167999,-2.303009 -6.012009,-3.996002 -8.964005,-4.932007c-2.916,-1.007996 -5.79599,-1.26001 -8.496002,-0.899994c-1.403992,1.47699 -2.591995,2.988007 -3.707993,4.93399c-1.152008,1.871002 -1.979004,3.924011 -2.770996,6.299011c4.030991,0.863007 7.235001,2.125 9.898987,3.923981c2.484009,1.693024 4.212006,4.824005 5.725006,6.625c1.548004,1.764008 2.735001,3.02301 3.563004,3.924011c0.972,2.59201 2.664001,4.606995 4.931992,6.046997c2.23201,1.403992 6.337006,2.520996 8.713013,2.520996c2.339996,-0.21698 3.599991,-1.403992 5.291992,-3.132996c1.511993,-1.800995 4.427994,-4.859009 4.319,-7.235992c-0.106995,-2.375 -1.800003,-4.786987 -4.932007,-7.09201c-0.359985,1.007996 -0.827988,1.90802 -1.547989,2.305023c-0.721008,0.358978 -2.340012,0.790985 -2.772003,0.323975c-0.576004,-0.468994 -0.684006,-1.548981 -0.324005,-3.097992c-1.690994,1.44101 -2.87999,2.053009 -3.707993,1.838013c-0.792007,-0.253998 -1.296005,-1.800995 -1.367004,-3.240021c-0.181,-1.548981 -0.181,-3.457001 0.143997,-5.868988c-1.332993,-1.080994 -2.664993,-2.161011 -3.996994,-3.240997z" fill="#ffffff" fill-rule="evenodd" stroke="#000000" stroke-miterlimit="10" stroke-width="0.036" id="svg_21"/>
  <path clip-rule="evenodd" d="m179.634003,442.230011c-0.612,1.583984 -0.863998,2.770996 -0.755997,3.563995c0,0.721008 0.68399,1.225006 1.223999,1.080017c0.432999,-0.252014 1.007996,-0.973022 1.728989,-2.305023c-0.722,-0.755005 -1.440994,-1.54599 -2.196991,-2.338989z" fill="#FFFFFF" fill-rule="evenodd" stroke="#000000" stroke-miterlimit="10" stroke-width="0.036" id="svg_22"/>
  <path clip-rule="evenodd" d="m183.341995,446.264008c-0.071991,1.653992 0.036011,2.59201 0.324005,3.096008c0.216003,0.432007 1.007996,-0.179993 1.404007,-0.468994c0.322998,-0.359009 0.574997,-0.828003 0.755997,-1.546997c-0.828003,-0.36203 -1.656006,-0.721039 -2.484009,-1.080017z" fill="#FFFFFF" fill-rule="evenodd" stroke="#000000" stroke-miterlimit="10" stroke-width="0.036" id="svg_23"/>
  <path clip-rule="evenodd" d="m156.197998,450.295013c0.611008,0.251984 1.151001,0.64801 1.619995,1.187988c0.432007,0.468994 0.684006,1.152008 0.899002,1.90802c-1.438995,1.079987 -2.627991,1.655975 -3.276001,1.728973c-0.720001,0 -1.187988,-0.792999 -1.007996,-1.548981c0.145004,-0.82901 0.684998,-1.872009 1.764999,-3.276001z" fill="#A16121" fill-rule="evenodd" stroke="#000000" stroke-miterlimit="10" stroke-width="0.036" id="svg_24"/>
  <path clip-rule="evenodd" d="m154.505997,448.78299l-2.627991,-1.656006c-0.432007,1.619019 -0.612,2.878998 -0.396011,3.778992c0.145004,0.828003 0.721008,1.764008 1.297012,1.44101c0.502991,-0.467987 1.077988,-1.475983 1.72699,-3.563995z" fill="#ffffff" fill-rule="evenodd" stroke="#000000" stroke-miterlimit="10" stroke-width="0.036" id="svg_25"/>
  <path clip-rule="evenodd" d="m148.746002,448.604004c-0.432999,0.251984 -0.828003,0.68399 -1.044006,1.294983c-0.287994,0.613007 -0.539993,1.297028 -0.612,2.197021c1.584,0.574005 2.664001,0.790985 3.240005,0.503998c0.468002,-0.324005 0.287994,-1.621002 0.035995,-2.231995c-0.287994,-0.722015 -0.828003,-1.261017 -1.619995,-1.764008z" fill="#A16121" fill-rule="evenodd" stroke="#000000" stroke-miterlimit="10" stroke-width="0.036" id="svg_26"/>
  <path clip-rule="evenodd" d="m146.729004,453.714996c-0.28801,0.503998 -0.432007,0.972992 -0.28801,1.549011c0.072006,0.503998 0.28801,1.079987 0.792007,1.72699c0.757004,-0.324005 1.332001,-0.645996 1.729004,-1.11499c0.395996,-0.468994 0.863998,-1.404022 0.575989,-1.69101c-0.467987,-0.39801 -1.259995,-0.505005 -2.80899,-0.470001z" fill="#ffffff" fill-rule="evenodd" stroke="#000000" stroke-miterlimit="10" stroke-width="0.036" id="svg_27"/>
  <path clip-rule="evenodd" d="m148.494003,457.890991c0.070999,0.071991 0.070999,0.359009 0.395996,0.721008c0.216003,0.358978 0.576004,0.862976 1.080002,1.511993c0.468002,-0.756012 0.828003,-1.584015 0.936996,-2.088013c0.070999,-0.720978 0.143997,-1.438995 -0.216995,-1.47699c-0.360001,0 -1.223999,0.395996 -2.195999,1.332001z" fill="#A16121" fill-rule="evenodd" stroke="#000000" stroke-miterlimit="10" stroke-width="0.036" id="svg_28"/>
  <path clip-rule="evenodd" d="m151.985992,460.446991l2.231003,0.46701c0.144989,-1.115021 0.287994,-1.943024 0.035995,-2.482025c-0.216003,-0.64798 -0.899994,-1.079987 -1.223999,-0.757996c-0.358994,0.361023 -0.755997,1.189026 -1.042999,2.77301z" fill="#A16121" fill-rule="evenodd" stroke="#000000" stroke-miterlimit="10" stroke-width="0.036" id="svg_29"/>
  <path clip-rule="evenodd" d="m153.102005,454.471008c-0.216003,-0.432007 -0.899002,-0.610992 -1.223999,-0.539001c-0.431992,0 -1.116013,0.035004 -0.936996,0.503998c0.145004,0.432007 1.477005,1.69101 1.908005,1.835999c0.324982,-0.072998 0.360992,-1.369995 0.252991,-1.800995z" fill="#A16121" fill-rule="evenodd" stroke="#000000" stroke-miterlimit="10" stroke-width="0.036" id="svg_30"/>
  <path clip-rule="evenodd" d="m64.902,316.338013c-3.348,-0.070007 -6.48,-5.975006 -9.792,-18c-3.348,-12.131012 -8.100002,-38.088013 -9.792,-53.854996c-1.836002,-15.840012 -2.987999,-31.896011 -0.396,-40.536011c2.52,-8.603989 5.327999,-9.071991 16.056,-11.123993c10.836002,-2.23201 31.428013,-1.692001 48.166996,-2.124008c16.560997,-0.503998 33.155998,-1.080002 50.903999,-0.612c17.748001,0.324005 42.768997,2.016006 54.648026,3.132004c11.519989,0.972 11.519989,0.143997 14.866974,3.348007c3.42099,3.131989 5.005005,8.35199 5.291992,15.659988c2.269012,-0.612 4.213013,-0.395996 5.688019,0.792007s3.096008,4.175995 3.311981,6.048004c0,1.619995 -1.078979,4.535995 -2.556,4.319992c-1.583984,-0.287994 -3.491974,-2.087997 -6.263977,-5.688004c0.070984,11.59201 -0.036011,22.968002 -0.181,34.667999c-0.252014,11.770996 0.251984,24.550995 -0.972015,34.847992c-1.403992,10.080017 -3.562988,18.324005 -6.876007,25.271027c3.564026,2.483978 6.084015,4.751984 7.848022,7.235992c1.619995,2.376984 1.800995,4.35498 2.341003,7.057007c0.503998,2.626984 0.719971,5.399994 0.791992,8.603973c1.548004,0.792999 2.268005,2.160004 2.158997,4.104004c-0.179993,1.801025 -1.618988,5.832001 -2.950989,7.236023c-1.404022,1.403992 -3.167999,1.690979 -5.292023,1.007996c0.684021,4.393005 0.359009,8.496002 -0.972992,12.312988c-1.402985,3.778992 -4.824005,8.171997 -7.056,10.403992c-2.339996,2.160004 -4.355988,2.844025 -6.444,2.340027c-0.287994,7.163971 -1.475983,12.312988 -3.707977,15.839996c-2.304016,3.347992 -1.26001,3.636993 -9.792023,4.895996c-8.675995,1.294983 -27.432007,2.411987 -41.544006,2.770996c-14.146988,0.179993 -32.075989,-0.21701 -42.659996,-1.187988c-10.62001,-1.008026 -15.695999,-0.828003 -20.771004,-4.71701c-5.18399,-4.031006 -8.315994,-10.225006 -9.791992,-18.972992c-2.880013,1.728973 -6.011993,2.520996 -9.396004,2.520996c-3.456009,-0.14502 -7.812004,-0.613007 -10.980011,-2.916016c-3.239998,-2.376984 -5.867989,-5.940979 -8.027988,-10.97998c-2.807999,-0.756012 -4.896,-2.844025 -6.264,-6.264008c-1.476009,-3.600006 -2.303997,-9.289001 -1.944,-14.292999c0.396004,-5.039001 2.160004,-11.375 4.320004,-15.264008c2.053997,-3.886993 4.681999,-6.514008 8.029999,-7.882996z" fill-rule="evenodd" stroke="#000000" stroke-miterlimit="10" stroke-width="0.036" id="svg_31"/>
  <path clip-rule="evenodd" d="m65.874001,320.118988c-2.556,2.160004 -4.644001,5.039001 -6.264,8.78299c-1.764,3.781006 -3.528,9.072021 -3.743999,13.537018c-0.360001,4.320007 0.431999,10.11499 2.375999,12.527008c1.98,2.231995 6.731998,1.870972 9.396,1.548981c2.519989,-0.43399 5.18399,-1.656006 6.047997,-3.528992c0.720016,-1.871002 -1.079994,-3.959015 -1.368004,-7.631012c-0.359985,-3.888977 -1.187981,-10.692993 -0.395996,-14.868988c0.864014,-4.210999 2.484016,-7.55899 5.291992,-10.187988c-3.779999,-0.033997 -7.559998,-0.106995 -11.339989,-0.179016z" fill="#7f0000" fill-rule="evenodd" stroke="#000000" stroke-miterlimit="10" stroke-width="0.036" id="svg_32"/>
  <path clip-rule="evenodd" d="m58.818001,348.307007c0,3.02301 1.764,5.472992 3.924,5.472992c2.16,0 3.924,-2.448975 3.924,-5.472992s-1.764,-5.472992 -3.924,-5.472992c-2.16,0 -3.924,2.448975 -3.924,5.472992z" fill-rule="evenodd" stroke="#000000" stroke-miterlimit="10" stroke-width="0.036" id="svg_33"/>
  <path clip-rule="evenodd" d="m60.582001,348.485992c0,1.945007 1.116001,3.528992 2.52,3.528992c1.368,0 2.52,-1.583984 2.52,-3.528992c0,-1.942993 -1.152,-3.492004 -2.52,-3.492004c-1.403999,0 -2.52,1.549011 -2.52,3.492004z" fill="#616161" fill-rule="evenodd" stroke="#000000" stroke-miterlimit="10" stroke-width="0.036" id="svg_34"/>
  <path clip-rule="evenodd" d="m78.797997,321.270996c1.799995,0 3.204002,-0.182007 4.5,-0.395996c1.224007,-0.252014 2.196007,-0.68399 2.915993,-1.152008c0,1.873016 0.612,5.003998 1.980011,9.395996c1.403992,4.355011 3.240013,9.973022 6.047997,16.848022c-1.331993,3.312988 -2.44799,6.442993 -3.491997,9.395996c-1.080002,2.878998 -2.160004,6.083984 -2.556,8.207001c-0.432007,2.052979 -0.323997,3.492004 0.179993,4.320007c-3.05999,1.800995 -6.011993,2.700989 -9,2.556976c-3.023979,-0.179993 -6.479996,-1.621002 -8.819992,-3.347992c-2.375992,-1.800995 -4.248001,-4.285004 -5.472,-7.453003c4.751999,0.21701 7.919998,-0.575989 9.791992,-2.519989c1.692017,-2.125 1.223999,-5.003998 0.972015,-9.035004c-0.324005,-4.03299 -3.312012,-10.01001 -2.736008,-14.472992c0.539986,-4.499023 2.304001,-8.567017 5.687996,-12.347015z" fill="#7f0000" fill-rule="evenodd" stroke="#000000" stroke-miterlimit="10" stroke-width="0.036" id="svg_35"/>
  <path clip-rule="evenodd" d="m99.929993,344.600006c-1.764015,2.123016 -3.240005,4.175995 -4.283989,6.442993c-1.11602,2.195007 -3.636017,5.076019 -2.160011,6.839996c1.332001,1.619019 0.179985,2.160004 10.584,3.133026c10.439995,0.862976 36.216003,2.050995 51.660004,2.15799c15.335999,-0.035004 30.491989,-0.359009 39.780014,-1.942993c9.144958,-1.656006 12.852966,-4.067993 14.867981,-7.631012c1.835999,-3.671997 0.755981,-8.208984 -3.528015,-13.895996c-3.311981,0.179993 -11.159973,0.432007 -24.083984,0.756012c-13.067001,0.323975 -39.600006,0.935974 -53.063004,1.007996c-13.464005,-0.035004 -22.39299,-0.324005 -27.216011,-1.007996c-0.828979,1.365967 -1.69297,2.734985 -2.556984,4.139984z" fill="#FB0F0C" fill-rule="evenodd" stroke="#000000" stroke-miterlimit="10" stroke-width="0.036" id="svg_36"/>
  <path clip-rule="evenodd" d="m93.089996,362.02301c-1.331993,7.415985 -0.359993,13.355011 3.311996,18.214996c3.635994,4.789001 3.600006,8.53299 18.216003,10.549011c14.688004,1.871002 52.452011,1.47699 68.723999,1.187988c15.947983,-0.432007 21.853012,0.324005 27.035995,-3.130981c5.003998,-3.637024 2.988007,-12.350006 3.528015,-17.820007c0.432007,-5.473022 0.432007,-10.44101 -0.395996,-14.904022c-1.656006,3.203003 -5.688019,5.508026 -12.528015,7.055023c-6.840027,1.513977 -14.615005,1.729004 -28.188004,2.160004c-13.859985,0.289001 -41.472,-0.143005 -53.675995,-0.180023c-12.132004,-0.142975 -14.509003,0.252014 -18.792,-0.214996c-4.391983,-0.576996 -6.803993,-1.549011 -7.236,-2.916992z" fill="#FB0F0C" fill-rule="evenodd" stroke="#000000" stroke-miterlimit="10" stroke-width="0.036" id="svg_37"/>
  <path clip-rule="evenodd" d="m106.194,377.863007c4.895996,0.756012 11.411003,1.475006 19.978996,2.160004c8.49601,0.718994 18.323997,1.871002 30.744011,1.942993c12.455994,-0.035004 26.495987,-0.863007 43.091995,-2.339996c-0.071991,2.088013 0.612,3.132996 1.764008,3.132996c1.151978,-0.108978 4.031982,-1.261993 5.291992,-3.312988c1.080017,-2.160004 2.195984,-8.281006 1.549011,-9.21701c-0.791992,-0.936005 -4.465027,2.52002 -5.868011,3.709015c-1.47702,1.11499 -2.339996,2.050995 -2.735992,2.950989c-5.400024,1.296997 -12.744003,2.015991 -22.320007,2.160004c-9.720001,0.071991 -23.074997,-0.756012 -35.063004,-1.367004c-12.061005,-0.686005 -24.119995,-1.368988 -36.612,-2.339996c0.035004,0.828003 0.107002,1.655975 0.179001,2.520996z" fill-rule="evenodd" stroke="#000000" stroke-miterlimit="10" stroke-width="0.036" id="svg_38" fill="#7f0000"/>
  <path clip-rule="evenodd" d="m202.529999,378.26001c0.395996,-1.296997 1.943024,-4.609009 2.556,-4.682007c0.503998,-0.143005 0.684021,3.350006 0.395996,4.5c-0.432007,1.080017 -2.268005,2.231995 -2.734985,2.339996c-0.577026,-0.106995 -0.648987,-0.971008 -0.21701,-2.15799z" fill="#A1A1A1" fill-rule="evenodd" stroke="#000000" stroke-miterlimit="10" stroke-width="0.036" id="svg_39"/>
  <path clip-rule="evenodd" d="m218.226013,367.313995c2.627991,-0.106995 4.824005,-1.583984 6.444,-4.140991c1.583984,-2.699005 2.843994,-7.199005 3.347992,-11.554993c0.360016,-4.607025 -0.03598,-10.404022 -0.610992,-14.869019c-0.612,-4.462982 -1.261017,-8.710999 -2.916016,-11.339996c-1.800995,-2.627014 -4.823975,-4.139008 -7.272003,-4.535004c-2.447998,-0.575989 -4.967987,-0.071991 -7.415985,1.367004c-0.467987,0.937988 -0.791992,2.77298 -0.972015,5.507996c-0.216003,2.735992 -0.287964,6.121002 -0.216003,10.583984c1.872009,2.988007 3.456024,5.832001 4.896027,8.389008c1.47699,2.484009 2.556,3.38501 3.527985,6.877014c0.755005,3.42099 1.149994,7.993011 1.187012,13.714996z" fill="#7f0000" fill-rule="evenodd" stroke="#000000" stroke-miterlimit="10" stroke-width="0.036" id="svg_40"/>
  <path clip-rule="evenodd" d="m229.962006,341.46701l1.944,-0.791016c-0.21701,-2.125 0.216003,-3.743988 1.007996,-4.71698c0.792023,-1.007996 2.088013,-1.511993 3.888,-1.367004c0.612,-4.105011 0.180023,-7.632996 -1.151978,-10.585999c-1.403015,-3.096008 -4.176025,-5.938995 -7.056,-7.416016c-3.060028,-1.583984 -7.884003,-1.978973 -10.584015,-1.583984c-2.664001,0.324005 -4.427979,1.729004 -5.291992,3.925995c3.671997,-0.828003 6.371979,-0.721008 8.639984,0.179993c2.124023,0.828003 2.772003,1.332001 4.283997,5.111023c1.403992,3.671967 2.843994,9.467987 4.320007,17.243988z" fill="#7f0000" fill-rule="evenodd" stroke="#000000" stroke-miterlimit="10" stroke-width="0.036" id="svg_41"/>
  <path clip-rule="evenodd" d="m234.282013,343.015991c0.070984,-1.332001 1.11499,-5.041016 1.764008,-5.688995c0.503998,-0.684021 1.332001,0.503998 1.367981,1.765991c-0.216003,1.26001 -0.972992,4.714996 -1.583984,5.507996c-0.540009,0.538025 -1.656006,-0.362976 -1.548004,-1.584991z" fill="#A1A1A1" fill-rule="evenodd" stroke="#000000" stroke-miterlimit="10" stroke-width="0.036" id="svg_42"/>
  <path clip-rule="evenodd" d="m103.853996,335.886993c0.792007,-7.847992 1.692017,-17.207001 3.131996,-28.225006c1.296005,-11.160004 3.527008,-28.618988 4.896011,-37.799011c1.223999,-9.179993 2.339996,-14.687988 2.951996,-16.812988c11.447998,0.035004 21.528,0.145004 30.528,0.180008c8.964005,-0.035004 15.552002,0.289001 23.111008,0c7.523987,-0.359009 14.363998,-1.008011 21.348999,-1.943008c0.179993,5.255981 0.646988,11.52002 1.547989,19.187988c0.792007,7.633026 1.943008,15.732025 3.744019,26.244019c1.763977,10.47699 4.104004,22.140991 7.019989,35.820007c-13.212006,1.690979 -25.524002,2.770996 -37.764008,3.526978c-12.419998,0.613007 -24.804993,0.576019 -35.06398,0.576019c-10.188019,-0.071991 -18.540009,-0.324005 -25.452019,-0.755005z" fill="#FB0F0C" fill-rule="evenodd" stroke="#000000" stroke-miterlimit="10" stroke-width="0.036" id="svg_43"/>
  <path fill="black" clip-rule="evenodd" d="m127.938004,318.821991c-2.59201,-6.046997 -3.490997,-22.463013 -4.5,-31.320007c-1.151001,-8.962982 -3.636002,-16.774994 -1.764,-21.347992c1.871994,-4.535004 4.751984,-4.463013 12.924004,-5.471008c8.171997,-1.079987 26.927994,-1.296997 35.459991,-0.792999c8.315994,0.359009 12.167999,-1.69101 14.473007,3.709015c2.123993,5.542999 -0.145004,19.222992 -0.973007,28.798981c-0.791992,9.395996 -0.431992,22.141022 -3.923996,27.395996c-3.744003,5.076019 -10.979004,2.809021 -17.820007,3.348022c-6.983002,0.395996 -17.423996,0.358978 -23.110992,-0.395996c-5.725006,-0.828003 -8.209,1.945007 -10.764999,-3.924011z" fill-rule="evenodd" stroke="#000000" stroke-miterlimit="10" stroke-width="0.036" id="svg_44"/>
  <path clip-rule="evenodd" d="m130.494003,316.303009c-2.664001,-5.328003 -3.276001,-18.286987 -4.32,-26.243988c-1.188011,-8.027008 -4.103996,-16.344025 -2.340004,-20.770996c1.764008,-4.320007 4.824005,-4.572021 12.923996,-5.473022c8.171997,-1.079987 27.756012,-1.294983 35.424011,-0.790985c7.487991,0.394989 8.028,-1.47702 9.395996,3.707001c1.151001,5.18399 -0.612,18.86499 -1.548004,27.432007c-0.863998,8.495972 -1.080002,18.755981 -3.707993,23.292999c-2.772003,4.319977 -7.021011,2.59198 -12.744003,3.130981c-5.977005,0.576019 -16.09201,0.576019 -21.744003,0c-5.580002,-0.791992 -8.712006,0.791992 -11.339996,-4.283997z" fill="#7f0000" fill-rule="evenodd" stroke="#000000" stroke-miterlimit="10" stroke-width="0.036" id="svg_45" opacity="0.75"/>
  <path clip-rule="evenodd" d="m134.417999,292.145996l32.112,-1.225006c0.035004,2.089996 0.574997,3.132996 1.764008,3.132996c1.151993,-0.106995 4.067993,-1.259979 5.255997,-3.312988c1.151993,-2.160004 2.231995,-8.278992 1.584,-9.214996c-0.792007,-0.937988 -4.464005,2.519989 -5.867996,3.707001c-1.476013,1.117004 -2.340012,2.053009 -2.735001,2.953003c-6.264999,0.610992 -12.024002,0.971008 -17.425003,1.222992c-5.436005,0.21701 -10.403,0.324005 -14.903,0.179993c0.069992,0.82901 0.14299,1.694 0.214996,2.557007z" fill-rule="evenodd" stroke="#000000" stroke-miterlimit="10" stroke-width="0.036" id="svg_46"/>
  <path clip-rule="evenodd" d="m169.050003,289.554993c0.395996,-1.295013 1.944,-4.606995 2.556,-4.679993c0.503998,-0.14502 0.684998,3.347992 0.395996,4.5c-0.431992,1.079987 -2.268997,2.231995 -2.735992,2.339996c-0.577011,-0.108002 -0.64801,-0.972992 -0.216003,-2.160004z" fill="#A1A1A1" fill-rule="evenodd" stroke="#000000" stroke-miterlimit="10" stroke-width="0.036" id="svg_47"/>
  <path clip-rule="evenodd" d="m112.853996,246.427002c-4.428009,-4.824005 -7.70401,-10.979996 -9.971992,-18.612c-2.339996,-7.740005 -3.528008,-16.667999 -3.708,-27.216003c13.607994,-3.024002 26.135994,-4.895996 38.159996,-5.472c11.880005,-0.576004 21.960007,0.287994 33.300003,1.764008c11.339996,1.29599 22.571991,3.311996 34.272003,6.047989c0.791992,5.76001 1.007996,11.195999 0.791992,16.848007c-0.21698,5.507996 -0.864014,12.132004 -2.375977,16.272003c-1.801025,4.067993 -2.772034,5.975998 -7.633026,8.207993c-4.895996,2.195999 -11.339996,3.671997 -21.131989,4.714996c-9.899002,1.008011 -26.892014,1.439011 -37.224014,1.152008c-10.330994,-0.395996 -18.394989,-1.727997 -24.478996,-3.707001z" fill="#FB0F0C" fill-rule="evenodd" stroke="#000000" stroke-miterlimit="10" stroke-width="0.036" id="svg_48"/>
  <path clip-rule="evenodd" d="m126.570007,240.595001c0,3.024002 2.483002,5.507996 5.57901,5.507996c3.097,0 5.579987,-2.483994 5.579987,-5.507996s-2.482986,-5.472 -5.579987,-5.472c-3.095016,0 -5.57901,2.447998 -5.57901,5.472z" fill-rule="evenodd" stroke="#000000" stroke-miterlimit="10" stroke-width="0.036" id="svg_49"/>
  <path clip-rule="evenodd" d="m129.089996,240.811005c0,1.944 1.584,3.528 3.564011,3.528c1.978989,0 3.599991,-1.584 3.599991,-3.528c0,-1.944 -1.619995,-3.528 -3.599991,-3.528c-1.980011,0 -3.564011,1.584 -3.564011,3.528z" fill="#616161" fill-rule="evenodd" stroke="#000000" stroke-miterlimit="10" stroke-width="0.036" id="svg_50"/>
  <path clip-rule="evenodd" d="m168.294006,240.595001c0,3.024002 2.484009,5.507996 5.544006,5.507996c3.095993,0 5.615997,-2.483994 5.615997,-5.507996s-2.520996,-5.472 -5.615997,-5.472c-3.060013,0 -5.544006,2.447998 -5.544006,5.472z" fill-rule="evenodd" stroke="#000000" stroke-miterlimit="10" stroke-width="0.036" id="svg_51"/>
  <path clip-rule="evenodd" d="m170.778,240.811005c0,1.944 1.619003,3.528 3.600006,3.528c1.978989,0 3.562988,-1.584 3.562988,-3.528c0,-1.944 -1.584,-3.528 -3.562988,-3.528c-1.981003,0 -3.600006,1.584 -3.600006,3.528z" fill="#616161" fill-rule="evenodd" stroke="#000000" stroke-miterlimit="10" stroke-width="0.036" id="svg_52"/>
  <path clip-rule="evenodd" d="m130.673996,222.451004l32.112,-1.223999c-0.071991,2.087997 0.611008,3.131989 1.764008,3.131989c1.151993,-0.071991 4.031998,-1.332001 5.291992,-3.347992c1.152008,-2.160004 2.23201,-8.315994 1.584,-9.180008c-0.899994,-0.827988 -4.391998,2.448013 -5.903992,3.708008c-1.475998,1.115997 -2.339996,2.052002 -2.735001,2.951996c-6.372009,0.612 -11.951996,0.972 -17.423996,1.223999c-5.473007,0.216003 -10.297012,0.324005 -14.868011,0.180008c0.035004,0.828003 0.10701,1.692001 0.179001,2.556z" fill-rule="evenodd" stroke="#000000" stroke-miterlimit="10" stroke-width="0.036" id="svg_53" fill="#7f0000"/>
  <path clip-rule="evenodd" d="m165.341995,219.858994c0.396011,-1.26001 1.944,-4.680008 2.556,-4.716003c0.505005,-0.143997 0.684998,3.348007 0.396011,4.5c-0.576004,1.151993 -2.195999,2.268005 -2.772003,2.376007c-0.503998,-0.108002 -0.612,-0.972 -0.180008,-2.160004z" fill="#A1A1A1" fill-rule="evenodd" stroke="#000000" stroke-miterlimit="10" stroke-width="0.036" id="svg_54"/>
  <path clip-rule="evenodd" d="m205.481018,326.921997c-0.144012,-8.35199 -0.071014,-19.583984 -0.180023,-34.270996c-0.106995,-14.832001 -0.179993,-32.328003 -0.215973,-53.459c-0.612,3.059998 -1.872009,5.399994 -3.924011,7.416c-2.053009,1.944 -4.788025,3.276001 -8.208008,4.138992c0.216003,7.525009 0.68399,15.048996 1.548004,23.112991c0.720001,7.920013 1.655975,15.768005 3.347992,24.660004c1.583984,8.891022 3.779999,18.214996 6.444,28.402008l1.188019,0z" fill="#7f0000" fill-rule="evenodd" stroke="#000000" stroke-miterlimit="10" stroke-width="0.036" id="svg_55"/>
  <path clip-rule="evenodd" d="m102.666,329.082001c0.539993,-13.28299 1.475998,-25.882996 2.951996,-38.770996c1.403008,-12.959015 3.348007,-25.235992 5.688004,-37.799011c-2.483002,-0.071991 -4.643997,-2.44899 -6.876007,-7.272995c-2.231995,-4.931992 -4.319992,-12.024002 -6.263992,-21.707993c0,17.099991 0.072006,31.462997 0.216003,44.065002c0,12.48999 -0.288017,20.122986 0.395996,30.526978c0.684013,10.367004 1.980003,20.412018 3.888,30.959015z" fill="#7f0000" fill-rule="evenodd" stroke="#000000" stroke-miterlimit="10" stroke-width="0.036" id="svg_56"/>
  <path clip-rule="evenodd" d="m99.75,331.855011c-3.059998,-12.204987 -4.824013,-25.30899 -5.688004,-40.140991c-0.828003,-14.938995 0.360001,-32.615021 0.792,-48.168015c0.396004,-15.587997 0.864006,-30.059998 1.547997,-44.243988c10.26001,-2.844009 19.728004,-4.608002 29.376007,-5.688004c9.611008,-1.008011 26.531006,-0.360001 27.432007,-0.576004c0.503998,-0.539993 -12.276001,-1.619995 -23.328003,-1.584c-11.087997,0.179993 -25.056007,0.828003 -42.479996,2.339996c-1.115997,2.916 -1.584015,9.64801 -1.548012,20.195999c0.036003,10.656006 1.008003,28.332001 1.944,42.876022c0.936012,14.507996 2.196007,31.319977 3.348007,43.054993c0.935997,11.520996 1.980003,20.411987 2.736,25.849976c0.683983,5.363007 0.719994,5.184021 1.764,6.264008c0.971992,0.936005 2.339989,1.007996 4.103996,-0.179993z" fill="#7f0000" fill-rule="evenodd" stroke="#000000" stroke-miterlimit="10" stroke-width="0.036" id="svg_57"/>
  <path clip-rule="evenodd" d="m160.841995,192.246994c9.576004,0.071991 18.28801,0.395996 26.819992,0.972c8.424011,0.468002 16.127991,1.187988 23.507996,2.159988c0.395996,2.808014 0.612,9.756012 0.791992,21.132004c0.072021,11.412003 0.576019,31.212006 0,46.619995c-0.612,15.300995 -1.90799,29.951019 -3.743988,44.641022c0.03598,-12.420013 0.03598,-24.877014 0,-38.197021c-0.071991,-13.28299 -0.03598,-29.519989 -0.179993,-40.930984c-0.108002,-11.520004 -0.503998,-20.520004 -0.792023,-27.576004c-7.667969,-2.520004 -15.11998,-4.391998 -22.895981,-5.904007c-7.811996,-1.47699 -15.515991,-2.44899 -23.507996,-2.916992z" fill="#7f0000" fill-rule="evenodd" stroke="#000000" stroke-miterlimit="10" stroke-width="0.036" id="svg_58"/>
  <path clip-rule="evenodd" d="m212.537994,309.932007c2.627991,1.402008 5.18399,1.332001 7.811981,0.179993c2.59201,-1.368988 5.796021,-0.720978 7.667999,-7.632996c1.692017,-7.09198 2.088013,-20.339996 2.736023,-33.47998c0.503998,-13.17601 1.332001,-33.371017 0.971985,-44.459015c-0.432007,-11.087997 -1.548004,-17.315994 -3.347992,-21.744003c-1.835999,-4.427994 -5.18399,-4.5 -7.416016,-4.679993c-2.303986,-0.28801 -5.112,2.556 -6.083984,3.132004c-1.044006,0.503998 -1.044006,0.503998 0,0c0.791992,8.028 1.187988,17.675995 1.187988,29.375992c-0.106995,11.628006 -0.755981,26.962997 -1.367004,40.319992c-0.648987,13.355011 -1.368958,26.027008 -2.16098,38.988007z" fill="#FB0F0C" fill-rule="evenodd" stroke="#000000" stroke-miterlimit="10" stroke-width="0.036" id="svg_59"/>
  <path clip-rule="evenodd" d="m236.802002,213.774994c0.828003,0.287994 3.671997,3.311996 4.5,4.5c0.540009,1.080002 -0.036011,2.160004 -0.756012,1.979996c-0.828003,-0.395996 -3.095978,-2.412003 -3.743988,-3.528c-0.68399,-1.151993 -0.828003,-3.23999 0,-2.951996z" fill="#A1A1A1" fill-rule="evenodd" stroke="#000000" stroke-miterlimit="10" stroke-width="0.036" id="svg_60"/>
  <path clip-rule="evenodd" d="m222.726013,295.817993l4.571991,-61.307999c2.088013,0.108002 3.167999,-0.360001 3.240021,-1.548004c-0.036011,-1.259995 -0.937012,-4.248001 -2.988007,-5.507996c-2.124023,-1.332001 -8.063019,-2.880005 -9.072021,-2.160004c-1.007965,0.684006 2.232025,4.535995 3.313019,6.119995c0.971985,1.475998 1.944,2.447998 2.770996,2.916c0.756989,1.440002 0.721008,7.128006 0.036011,17.460007c-0.756012,10.403976 -2.231018,24.76799 -4.428009,44.064011c0.827972,0.001007 1.691986,0.001007 2.556,-0.036011z" fill-rule="evenodd" stroke="#000000" stroke-miterlimit="10" stroke-width="0.036" id="svg_61" fill="#7f0000"/>
  <path clip-rule="evenodd" d="m226.074005,231.882996c-1.187988,-0.539993 -4.53598,-2.412003 -4.5,-2.843994c-0.03598,-0.540009 3.312012,-0.576004 4.5,-0.108002c1.11499,0.468002 2.015991,2.268005 2.160004,2.880005c-0.144012,0.431992 -1.045013,0.503998 -2.160004,0.071991z" fill="#A1A1A1" fill-rule="evenodd" stroke="#000000" stroke-miterlimit="10" stroke-width="0.036" id="svg_62"/>
  <path clip-rule="evenodd" d="m88.373993,315.006012c0,0 -5.147995,2.34201 -7.415985,0.613007c-2.304016,-1.800995 -3.995995,-0.64801 -5.688019,-12.744019c-1.727997,-12.274994 -3.203979,-42.876984 -4.5,-59.723984c-1.331985,-16.812012 -2.951996,-32.220001 -3.347992,-40.356003c-0.395996,-7.992004 0,-6.084 1.007996,-7.632004c0.972015,-1.548004 2.59201,-1.404007 4.895996,-1.548004c2.304024,-0.179993 7.308014,-1.547989 8.784012,0.576004c1.475998,2.160004 -0.28801,4.356003 0,12.132004c0.32399,7.847992 0.863998,19.151993 1.763992,34.272003c0.900009,15.191986 2.70002,43.486984 3.528015,55.800003c0.828003,12.204987 0.971985,18.610992 0.971985,18.610992z" fill="#FB0F0C" fill-rule="evenodd" stroke="#000000" stroke-miterlimit="10" stroke-width="0.036" id="svg_63"/>
  <path clip-rule="evenodd" d="m83.334,290.238007l-3.996002,-61.379013c2.052002,-0.179993 3.095993,-0.791992 2.987991,-1.979996c-0.288002,-1.188004 -1.799988,-4.104004 -3.707993,-5.003998c-1.979996,-0.936005 -6.551987,-1.475998 -7.451996,-0.647995c-0.863998,0.827988 1.295998,3.85199 2.304001,5.327988c0.863998,1.296005 1.90799,2.088013 3.131989,2.520004c0.900009,1.296005 1.728012,6.912003 2.484009,17.280014c0.64801,10.368011 1.223999,24.839996 1.728004,44.244995c0.827995,-0.110016 1.655998,-0.21701 2.519997,-0.362z" fill-rule="evenodd" stroke="#000000" stroke-miterlimit="10" stroke-width="0.036" id="svg_64" fill="black"/>
  <path clip-rule="evenodd" d="m77.790009,226.447006c-1.115997,-0.647995 -3.852005,-2.916 -3.888,-3.455994c-0.180008,-0.432007 2.448006,-0.108002 3.455994,0.539993c1.007996,0.468002 2.376007,2.016006 2.556,2.556c-0.036011,0.431992 -1.11599,0.827988 -2.123993,0.360001z" fill="#A1A1A1" fill-rule="evenodd" stroke="#000000" stroke-miterlimit="10" stroke-width="0.036" id="svg_65"/>
  <path clip-rule="evenodd" d="m77.033997,315.402008c0,0 -4.320007,-7.164001 -5.687988,-14.867004c-1.332001,-7.774994 -1.656006,-19.117004 -2.340012,-31.140991c-0.684006,-12.061005 -0.935989,-28.727997 -1.764,-40.535995c-0.864006,-11.772003 -0.792,-24.336014 -3.347996,-29.556c-2.556,-5.184006 -9.108002,-2.916 -11.916,-1.404007c-2.844002,1.584 -4.212002,3.707993 -4.896,10.584c-0.684002,6.947998 -0.396,18.828003 0.756001,30.563995c1.188,11.771011 3.815998,27.469009 6.084,39.348007c2.267998,11.843994 3.563999,24.876984 7.452,31.140991c3.888,6.191986 15.659996,5.867004 15.659996,5.867004z" fill="#FB0F0C" fill-rule="evenodd" stroke="#000000" stroke-miterlimit="10" stroke-width="0.036" id="svg_66"/>
  <path clip-rule="evenodd" d="m66.449997,305.610992c0,0 -7.271996,-27.144989 -9.575996,-47.77298c-2.34,-20.627029 0.324001,-34.703018 0.324001,-34.703018c1.655998,-3.276001 1.835999,-5.14801 0.827999,-6.012009c-1.152,-0.755997 -5.004002,0 -7.236,1.152008c-2.375999,0.972 -5.976002,4.103989 -6.084,5.112c0,0.828003 4.175999,0.755997 5.868,0.755997c1.584,-0.035995 2.879997,-0.216003 3.888,-0.684006c-1.584003,8.856003 -1.440002,19.764008 0.035999,33.40802c1.475998,13.606995 4.5,29.267975 9.071999,47.664001c0.935997,0.359985 1.907997,0.718994 2.879997,1.079987z" fill-rule="evenodd" stroke="#000000" stroke-miterlimit="10" stroke-width="0.036" id="svg_67" fill="#7f0000"/>
  <path clip-rule="evenodd" d="m54.966,221.371002c-1.439999,0.503998 -5.796001,1.332001 -6.408001,1.080002c-0.612,-0.360001 1.908001,-2.412003 3.240002,-2.952011c1.332001,-0.612 3.852001,-0.827988 4.5,-0.503998c0.467999,0.28801 -0.108002,1.728012 -1.332001,2.376007z" fill="#A1A1A1" fill-rule="evenodd" stroke="#000000" stroke-miterlimit="10" stroke-width="0.036" id="svg_68"/>
  <path clip-rule="evenodd" d="m214.877991,128.419006c-10.115967,-0.108002 -17.495972,-0.108002 -22.715988,-0.395996c-5.184998,-0.28801 -7.919998,-0.64801 -8.207993,-1.080009c-1.692001,0.683998 -3.313004,1.007996 -4.716003,0.972c-1.47699,-0.036003 -2.735992,-0.431999 -3.925003,-1.188004c-1.11499,0.648003 -4.066986,1.188004 -9,1.476006c-5.039993,0.216003 -14.759995,0.575989 -20.556,0.395996c-5.867996,-0.144989 -10.584,-0.648003 -14.291992,-1.367996c-1.727997,0.935989 -3.167999,1.547989 -4.32,1.547989c-1.151009,-0.035995 -2.159004,-0.395996 -2.735008,-1.367989l-11.339996,0.792c-2.089005,-0.036011 -5.615997,0.143997 -10.584,0.395996c-5.076004,0.324005 -14.040001,1.511993 -19.404007,1.188004c-5.435989,-0.504013 -9.215988,-0.647995 -12.888,-3.924004c-3.815979,-3.311996 -7.37999,-8.243996 -9.431992,-16.056c-2.124001,-8.099998 -2.807999,-20.159996 -2.736,-31.32c0.072002,-11.231987 0.684002,-26.675999 3.348,-35.063999c2.556004,-8.388 6.552002,-13.212 12.132004,-14.868c0.647995,-4.608 3.059998,-8.639999 7.235985,-11.952c4.176003,-3.420001 11.484016,-8.532001 17.640007,-8.244c6.120003,0.216 12.240005,3.42 18.792007,9.612c2.015991,-0.468 3.743996,-0.540001 5.472,-0.216002c1.692001,0.324001 3.097,1.044001 4.5,2.160002c3.925003,-6.084001 8.425003,-10.008001 13.895996,-11.916001c5.363998,-1.872 13.354996,-0.936 18.432007,0.576c5.075989,1.404 8.89299,4.032001 11.735992,8.028001c0.324005,-1.512001 1.26001,-2.052001 2.951996,-1.764001c1.69101,0.252 3.996002,1.476001 7.056015,3.528001c3.528,-3.492001 7.523987,-5.148001 12.131989,-5.508c4.536011,-0.324 10.548004,-0.648 15.264984,3.744c4.644012,4.463999 8.892029,11.736 12.743011,22.5c3.779999,3.635998 6.696014,8.604 8.604004,14.903999c1.944,6.372002 2.556,14.543987 2.951996,22.716c0.216003,8.028 1.764008,16.487999 -1.187988,25.236c-3.096008,8.676003 -8.568024,17.351997 -16.848022,26.460007z" fill-rule="evenodd" stroke="#000000" stroke-miterlimit="10" stroke-width="0.036" id="svg_69"/>
  <path clip-rule="evenodd" d="m126.389999,56.347c-0.179993,-5.796001 -0.972,-11.268002 -2.375992,-16.848c-1.404007,-5.616001 -3.348007,-12.168001 -6.264008,-16.452c-3.132004,-4.392 -7.452003,-7.704 -12.132004,-9.396001c-4.787994,-1.728 -11.05201,-3.096 -15.875999,-0.792c-4.859993,2.268 -9.071999,6.984 -12.924004,14.291999c1.764008,-0.935999 3.564011,0.540001 5.688004,4.716002c2.08799,4.104 5.004013,11.736 6.660004,19.98c1.440002,8.243999 2.159996,18.18 2.556,28.980003c0.395996,10.727997 0.324013,26.927994 -0.216003,34.848c-0.576004,7.703995 -1.619995,11.556 -3.132004,11.556c2.41201,-0.684006 5.436005,-1.044006 9.216003,-1.368004c3.708015,-0.360001 8.928017,-0.215996 13.320007,-0.395996c4.391998,-0.216003 8.49601,-0.431999 12.707993,-0.792c1.836006,-4.356003 2.952011,-9.072006 3.744003,-14.292c0.611008,-5.436005 0.755997,-11.160004 0.574997,-17.028c-0.216003,-5.904007 -0.539993,-11.700005 -1.366989,-17.82c-2.124008,-0.432007 -3.744011,-1.260002 -4.71701,-2.340004c-1.079994,-1.152 -1.403,-2.700012 -1.367004,-4.5c0.071014,-1.872002 0.504021,-4.211998 1.584015,-6.875999c-2.736008,-1.007999 -4.896004,-2.015999 -6.480011,-3.312c-1.727997,-1.368 -3.419998,-2.627998 -3.132004,-4.32c0.360001,-1.835999 2.448021,-6.444 4.896004,-6.048c2.340004,0.324001 5.254997,3.060001 9.036003,8.208z" fill="#215B4D" fill-rule="evenodd" stroke="#000000" stroke-miterlimit="10" stroke-width="0.036" id="svg_70"/>
  <path clip-rule="evenodd" d="m129.306,21.679001c-0.324005,-1.188002 0.755997,-2.736 2.951996,-4.5c2.23201,-1.944001 6.192001,-5.328001 10.368011,-6.264001c4.103989,-1.008 9.179993,-0.828 14.112,0.972c4.931992,1.872 10.584,4.104 14.866989,10.008c4.031998,5.868 7.236008,13.896 9.612,24.66c-2.664001,-0.324001 -4.931992,-0.288002 -6.659988,0.396c-1.872009,0.647999 -4.248001,1.655998 -3.924011,3.312c0.324005,1.584 2.340012,3.672001 6.048004,6.264c-1.690994,2.16 -2.268005,4.139999 -1.727997,6.084c0.503998,1.944 2.015991,3.564003 4.679993,5.292c-0.503998,1.440002 -0.395996,2.807999 0.180008,4.104004c0.539993,1.187996 1.655991,2.303993 3.348999,3.348c0.755997,6.803993 0.68399,13.607994 0.179993,20.951996c-0.612,7.307999 -1.29599,17.531998 -3.707993,22.5c-2.556,4.788002 -6.048004,5.328003 -11.160004,6.479004c-5.184006,1.079994 -14.328003,0.035995 -19.367996,0.18c-4.968002,0.107994 -7.990997,0.467995 -10.584,0.395996c-2.770996,-0.143997 -4.570999,-0.648003 -5.688004,-1.367996c0.792007,-3.852005 1.511993,-8.244003 2.160004,-13.716003c0.610992,-5.580002 1.548004,-13.139999 1.548004,-18.792c-0.072006,-5.688004 -0.720001,-10.512001 -1.944,-14.868004c2.735992,1.800003 5.003998,2.772003 6.659988,2.916c1.584,0.108002 2.556,-0.107994 3.313004,-2.159996c0.755997,-2.232002 1.943008,-9.036003 1.188004,-10.548004c-0.863998,-1.511993 -2.951996,-1.043999 -6.264008,1.548004c1.26001,-3.924004 1.403,-6.875999 0.576004,-9c-0.863998,-2.16 -2.699997,-3.348 -5.651993,-3.708c0,-4.212002 -0.251999,-8.316002 -0.612,-12.743999c-0.396011,-4.535999 -1.080002,-9.827999 -1.764008,-13.5c-0.720993,-3.671001 -1.729996,-6.371 -2.737,-8.243z" fill="#215B4D" fill-rule="evenodd" stroke="#000000" stroke-miterlimit="10" stroke-width="0.036" id="svg_71"/>
  <path clip-rule="evenodd" d="m183.738007,21.283001c3.238998,-3.240002 6.876007,-4.932001 10.764008,-5.076c3.888,-0.216001 8.208008,-1.224001 12.562988,3.924c4.356018,5.184 10.152008,15.371998 12.925018,26.82c2.59198,11.34 2.915985,28.943996 2.519989,40.716c-0.503998,11.592003 -3.167999,22.536003 -5.471985,28.800003c-2.412018,6.191994 -4.933014,6.731995 -8.820007,8.423996c-3.996002,1.439003 -10.835999,1.403999 -14.688004,1.152c-3.960007,-0.215996 -6.624008,-1.043999 -8.425003,-2.339996c3.276001,-4.644005 5.436996,-10.800003 6.479996,-18.612c1.044006,-7.920006 0.972,-17.136002 -0.216003,-28.188004c1.62001,0.972 3.060013,1.008003 4.318985,0.396004c1.225037,-0.756004 2.664001,-2.160004 2.952026,-4.5c0.108002,-2.448006 -0.468018,-8.028 -1.583984,-9.396004c-1.116028,-1.403999 -2.808014,-0.972 -5.076019,1.152c1.151993,-1.835999 1.477005,-3.456001 1.367996,-5.256001c-0.287994,-1.799999 -1.007996,-3.563999 -2.556,-5.292c0.035995,-6.084 -0.647995,-11.736 -1.763992,-17.243999c-1.18602,-5.508001 -2.950012,-10.620001 -5.290009,-15.48z" fill="#215B4D" fill-rule="evenodd" stroke="#000000" stroke-miterlimit="10" stroke-width="0.036" id="svg_72"/>
  <path clip-rule="evenodd" d="m219.197998,119.598999c2.808014,-2.304001 5.040009,-6.047997 6.839996,-11.375999c1.727997,-5.400002 3.167999,-13.031998 3.744019,-20.556c0.539978,-7.596001 0.431976,-17.532013 -0.612,-24.66c-1.26001,-7.236 -3.167999,-13.32 -6.264008,-18.396c1.367004,2.844002 2.268005,8.099998 2.556,16.056c0.251984,7.920013 0.216003,21.167999 -0.791992,31.139999c-1.044006,9.828003 -2.916016,19.043999 -5.472015,27.792z" fill="#215B4D" fill-rule="evenodd" stroke="#000000" stroke-miterlimit="10" stroke-width="0.036" id="svg_73"/>
  <path clip-rule="evenodd" d="m87.977997,70.063004c0.791992,-6.768005 0.468002,-12.960003 -0.972,-19.008003c-1.475998,-6.048 -5.003998,-13.571999 -7.632004,-16.848c-2.627991,-3.204 -5.00399,-5.184 -8.027985,-2.34c-3.024017,2.880001 -8.604008,7.703999 -9.972008,19.403999c-1.368,11.771999 -1.619999,40.247997 0.360001,52.668003c2.015999,12.311996 7.811989,16.955994 11.591988,20.736c3.744019,3.744003 9.936005,5.255997 12.132019,-0.756004c2.159988,-6.155998 1.763992,-24.695999 0.755981,-35.459999c-1.007996,-10.727997 -2.843987,-28.655998 -5.471992,-34.452c-2.627998,-5.796001 -6.875999,-11.844002 -9,-9.216c-2.124001,2.700001 -6.479996,19.152 -6.084,28.008003c0.46801,8.855995 4.896004,30.455994 7.452003,33.875999c2.592003,3.311996 8.423996,-5.436005 9,-10.764c0.539986,-5.400002 -4.319992,-21.816002 -5.651993,-21.168007c-1.368011,0.828003 3.023979,14.688004 2.123993,20.196007c-0.863998,5.472 -3.312012,9 -4.896004,5.075996c-1.547997,-3.923996 -2.411995,-15.732002 -2.519997,-21.528c-0.108002,-5.795998 1.260002,-10.908012 2.339996,-12.744003c1.080002,-1.799995 2.23201,-1.691994 4.104004,1.944c1.908012,3.672005 5.940002,11.736 7.056,19.800003c1.080002,8.064003 -1.548004,17.171997 -2.736008,23.508003c-1.223999,6.227997 -3.996002,7.019997 -7.056,5.255997c-3.095993,-1.800003 -5.507996,-3.204002 -8.027985,-11.519997c-2.484009,-8.352005 -2.376007,-17.136002 -2.556007,-27.431999c-0.143997,-10.332001 0.288002,-21.060005 2.159996,-28.008003c1.871994,-6.875999 5.580002,-10.944 8.423996,-10.584c2.808014,0.431999 4.068008,2.880001 6.480003,11.195999c2.376015,8.352001 4.824013,16.919998 6.624001,33.875999c0,-4.571999 0,-9.143997 0,-13.715996z" fill="#215B4D" fill-rule="evenodd" stroke="#000000" stroke-miterlimit="10" stroke-width="0.036" id="svg_74"/>
  <path clip-rule="evenodd" d="m120.485992,19.735001c2.087997,-0.720001 3.923996,0.251999 5.507996,2.916c1.476006,2.664 2.770996,7.199999 3.888,12.924c1.115997,5.616001 1.835999,12.348 2.556,20.591999c-0.358994,-0.144001 -0.610992,0.18 -1.151001,0.972c-0.432999,0.792 -1.151993,1.98 -1.764999,3.708c0,-4.68 -0.574997,-9.792 -1.584,-15.48c-1.188011,-5.903999 -3.347992,-14.184 -4.679985,-18.576c-1.332016,-4.32 -2.124001,-6.624001 -2.772011,-7.056z" fill="#A16121" fill-rule="evenodd" stroke="#000000" stroke-miterlimit="10" stroke-width="0.036" id="svg_75"/>
  <path clip-rule="evenodd" d="m131.285995,73.591003c0.899002,0.431999 4.391998,-3.672005 5.472,-5.904007c0.863998,-2.267998 0.900009,-5.831997 0.396011,-7.235996c-0.540009,-1.512001 -2.484009,-2.015999 -3.349014,-1.368c-0.972,0.612 -1.835999,2.591999 -2.159988,5.112c-0.503006,2.448013 -1.223007,8.676003 -0.359009,9.396004z" fill="#A16121" fill-rule="evenodd" stroke="#000000" stroke-miterlimit="10" stroke-width="0.036" id="svg_76"/>
  <path clip-rule="evenodd" d="m129.126007,66.535004c-0.503998,-1.368004 -2.520996,-4.104004 -3.528,-3.348003c-0.936005,0.756001 -2.375984,6.516003 -1.979004,7.848003c0.252014,1.259995 2.987,0.251999 3.924004,-0.396004c0.826988,-0.863998 1.90699,-2.879997 1.583,-4.103996z" fill="#A16121" fill-rule="evenodd" stroke="#000000" stroke-miterlimit="10" stroke-width="0.036" id="svg_77"/>
  <path clip-rule="evenodd" d="m122.646004,55.555c0.540009,1.188 -0.396004,3.456001 -1.547997,3.348c-1.224014,-0.216 -5.004021,-3.132 -5.508011,-4.32c-0.647995,-1.403999 0.755997,-3.240002 1.980011,-3.132c1.29599,0.216 4.283989,2.700001 5.075996,4.104z" fill="#A16121" fill-rule="evenodd" stroke="#000000" stroke-miterlimit="10" stroke-width="0.036" id="svg_78"/>
  <path clip-rule="evenodd" d="m137.154007,74.347c0.611008,-1.188004 4.428009,-4.5 5.472,-4.104004c0.899002,0.396004 0.684006,5.076004 0.180008,6.264008c-0.647003,1.079994 -2.807999,0.503998 -3.708008,0.215996c-1.044006,-0.503998 -2.520004,-1.295998 -1.944,-2.375999z" fill="#A16121" fill-rule="evenodd" stroke="#000000" stroke-miterlimit="10" stroke-width="0.036" id="svg_79"/>
  <path clip-rule="evenodd" d="m130.098007,79.242996c0.251999,3.708 0.216003,8.100006 0.181,13.320007c-0.181,5.147995 -0.108002,12.131996 -0.757004,17.639999c-0.719986,5.363998 -1.836006,10.367996 -3.347992,14.867996c0.324005,1.152 0.827995,1.584 1.367996,1.584c0.395996,0.036003 0.936005,0.720001 1.764008,-1.979996c0.863998,-3.096001 2.231995,-9.756004 3.131989,-15.264c0.757004,-5.472 1.261002,-11.592003 1.368011,-16.848c0,-5.328003 -0.828003,-11.952003 -1.368011,-14.472c-0.755997,-2.556 -2.158997,-0.864006 -2.556,-0.612007c-0.432007,0.18 -0.361008,0.720001 0.216003,1.764z" fill="#A16121" fill-rule="evenodd" stroke="#000000" stroke-miterlimit="10" stroke-width="0.036" id="svg_80"/>
  <path clip-rule="evenodd" d="m188.057999,51.631001c0.540009,-3.348 0.360001,-6.875999 -0.395996,-11.16c-0.936996,-4.392002 -2.809006,-10.332001 -4.5,-14.076c-1.764999,-3.780001 -4.141006,-6.552 -5.867996,-8.028c-1.764008,-1.512001 -3.384003,-1.620001 -4.716003,-0.612001c2.015991,2.844002 3.85199,6.372002 5.507996,10.584002c1.692001,4.175999 3.311996,10.584 4.283997,14.507999c0.828003,3.852001 -0.251999,6.84 0.792007,8.424c0.972,1.403999 2.556,1.619999 4.895996,0.360001z" fill="#A16121" fill-rule="evenodd" stroke="#000000" stroke-miterlimit="10" stroke-width="0.036" id="svg_81"/>
  <path clip-rule="evenodd" d="m182.188995,56.347c-2.194992,1.476002 -3.311996,3.023998 -3.742996,4.5c-0.432999,1.512001 0.070999,2.807999 1.367004,4.32c1.800995,-1.296001 2.916,-2.664001 3.348999,-4.104c0.358994,-1.548 0.035995,-2.987999 -0.973007,-4.716z" fill="#A16121" fill-rule="evenodd" stroke="#000000" stroke-miterlimit="10" stroke-width="0.036" id="svg_82"/>
  <path clip-rule="evenodd" d="m183.162003,67.507004c0,-1.188004 0.503998,-2.376007 1.367996,-4.104004c0.826996,-1.692001 2.016006,-3.599998 3.708008,-5.868c0.610992,2.952 0.791992,5.507999 0.395996,7.812c-0.503998,2.195999 -1.835999,5.292 -2.736008,5.688004c-0.863998,0.359993 -1.90799,-0.863991 -2.735992,-3.528z" fill="#A16121" fill-rule="evenodd" stroke="#000000" stroke-miterlimit="10" stroke-width="0.036" id="svg_83"/>
  <path clip-rule="evenodd" d="m191.585999,67.686996c1.223999,-1.764 2.124008,-2.339996 3.132019,-2.123993c0.936981,0.251999 2.231995,2.087997 2.339966,3.708c-0.03598,1.547997 -1.079987,5.579994 -2.159973,5.867996c-1.188004,0.143997 -2.59201,-1.115997 -4.500015,-4.32c0.396011,-1.043999 0.791,-2.087997 1.188004,-3.132004z" fill="#A16121" fill-rule="evenodd" stroke="#000000" stroke-miterlimit="10" stroke-width="0.036" id="svg_84"/>
  <path clip-rule="evenodd" d="m179.238007,51.271c-1.584,-1.655998 -2.772003,-2.627998 -3.707993,-2.771999c-1.044006,-0.18 -2.305008,0.396 -1.980011,1.584c0.324005,1.079998 1.584,2.664001 3.924011,4.896c0.575989,-1.223999 1.151993,-2.448002 1.763992,-3.708z" fill="#A16121" fill-rule="evenodd" stroke="#000000" stroke-miterlimit="10" stroke-width="0.036" id="svg_85"/>
  <path clip-rule="evenodd" d="m185.322006,95.695c-0.216995,4.463997 -0.720993,9.863998 -1.367996,14.112c-0.936996,4.284004 -2.951996,8.496002 -3.528,10.979004c-0.539993,2.339996 -0.360001,3.312996 0.395996,2.916c0.720001,-0.540001 2.339996,-2.556 3.888,-6.048004c1.332001,-3.599998 3.815002,-9.683998 4.536011,-15.479996c0.719986,-5.904007 0.143997,-15.444 -0.216003,-19.584007c-0.469009,-4.211998 -1.80101,-5.615997 -2.341003,-5.472c-0.647003,0 -1.044006,2.700005 -1.188004,5.868004c-0.251007,3.097 -0.035004,8.172997 -0.179001,12.709z" fill="#A16121" fill-rule="evenodd" stroke="#000000" stroke-miterlimit="10" stroke-width="0.036" id="svg_86"/>
  <path clip-rule="evenodd" d="m58.998001,144.186996c0.431999,-2.951996 1.548,-5.759995 3.348,-8.028c1.692001,-2.411987 2.951996,-4.716003 7.236,-6.084c4.212006,-1.439987 12.600006,-1.404007 18.215996,-1.979996c5.544006,-0.648003 11.196007,-1.584 14.868004,-1.548004c3.528,0 5.687996,0.360001 6.478996,1.368004l10.980003,0c0.972,-1.043999 4.212013,-1.692001 9.576004,-1.944c5.435989,-0.323997 16.847992,-0.071999 22.716003,0.18c5.687988,0.071999 8.35199,0.468002 11.735992,0.792c3.311996,0.360001 6.119003,0.648003 8.423996,1.152c2.412003,0.395996 4.536011,0.503998 6.660004,0.612c2.087997,-0.036011 3.888,-0.071991 5.688004,-0.395996c0.071991,-0.684006 1.223999,-0.612007 5.472,-0.576004c4.319977,0 14.291992,0.503998 19.009003,1.151993c4.643982,0.684006 5.579987,-0.791992 8.819,2.736008c3.203979,3.600006 8.208008,12.276001 10.367981,18.431992c2.124023,6.084015 2.916016,11.124008 2.340027,18c-0.611023,6.912003 -2.987,17.568008 -5.868011,22.931992c-2.916016,5.256012 -5.723999,7.128006 -11.339996,8.604004c-5.723999,1.404007 -10.188019,0.972 -16.271027,0.576004s-8.027985,-2.160004 -8.027985,-2.160004l-7.631989,-0.395996c0,0 -1.080002,1.475998 -10.584,1.763992c-9.504013,0.324005 -11.521011,-0.612 -27.396011,-0.575989c0,0 -7.019989,0.647995 -11.158997,0.395996c-4.177002,-0.251999 -5.112,-1.764008 -5.112,-1.764008l-5.075996,0c0,0 -1.620003,1.188004 -8.028,1.764008c-6.407005,0.576004 -6.191002,0 -17.639999,0.576004c-11.340004,0.612 -15.264,3.528 -20.736,2.556c-5.472,-1.008011 -8.568001,-3.888 -11.772003,-8.423996c-3.167999,-4.535995 -6.335999,-10.26001 -7.236,-18.612c-0.865002,-8.352005 -0.253002,-18.576004 1.943001,-31.104004z" fill-rule="evenodd" stroke="#000000" stroke-miterlimit="10" stroke-width="0.036" id="svg_87"/>
  <path clip-rule="evenodd" d="m82.722,131.046997c4.103989,-0.68399 7.919998,-1.332001 11.735992,-1.548004c3.780014,-0.359985 8.064011,-0.612 10.764008,-0.216003c2.520996,0.396011 4.141006,1.044006 4.716003,2.340012c0.899994,1.007996 2.268997,2.520004 4.104004,4.535995c1.836006,1.908005 4.751999,4.104004 6.659981,7.416c1.764015,3.276001 3.132011,7.272003 4.104012,12.132004c-1.296013,-0.360001 -2.195999,0.179993 -2.556,1.763992c-0.432007,1.548004 0.106987,5.004013 0.216003,7.452011c-0.108002,2.375992 -0.504005,4.787994 -0.216003,6.659988c0.179993,1.764008 0.899002,2.952011 1.764008,3.708008c0.432999,1.367996 0.251999,3.671997 -0.396011,7.056c-0.755997,3.348007 -1.943993,10.692001 -3.707993,13.139999c-1.872017,2.304001 -3.276001,0.828003 -6.839996,0.972c-3.673004,0.072006 -10.081009,-0.503998 -14.508011,-0.216003c-4.5,0.180008 -8.35199,0.755997 -11.951996,1.584c2.195999,-6.552002 3.455986,-13.751999 3.923996,-22.139999c0.395996,-8.459991 -0.108009,-20.26799 -1.367996,-27.791992c-1.295998,-7.488007 -3.491989,-13.104004 -6.444,-16.848007z" fill="#1AA6B6" fill-rule="evenodd" stroke="#000000" stroke-miterlimit="10" stroke-width="0.036" id="svg_88"/>
  <path clip-rule="evenodd" d="m125.382004,130.074997c4.608002,-0.647995 9.575989,-1.151993 15.300003,-1.367996c5.687988,-0.432007 12.419998,-0.828003 18.395996,-0.216003c5.903,0.64801 11.160004,1.908005 16.451996,3.924011c2.770996,1.691986 4.680008,3.671997 6.264008,6.083984c1.439987,2.448013 2.015991,5.004013 2.556,8.208008c0.432999,2.988007 0.755997,6.371994 0.575989,10.007996c-1.187988,0 -2.015991,0.360001 -2.339996,1.367996c-0.395996,0.864014 0.216003,2.016006 0.180008,4.284012c-0.180008,2.195999 -1.044006,6.839996 -0.792007,9.215988c0.216003,2.376007 0.936996,3.81601 2.160004,4.716003c0.145004,2.052002 -0.180008,4.680008 -0.972,8.028c-0.828003,3.240005 -2.087997,7.199997 -3.923996,11.736008c-1.656006,0.360001 -4.78801,0.720001 -9.396011,0.791992c-4.787994,-0.035995 -12.815994,-0.108002 -18.395996,-0.215988c-5.615997,-0.144012 -10.871994,-0.072006 -14.509003,-0.180008c-3.563004,-0.108002 -6.011993,-0.179993 -7.056,-0.216003c-0.071991,-0.143997 0,-0.612 0.216003,-1.547989c0.181,-0.936005 0.395996,-2.196014 0.792007,-3.924011l3.528,1.584l6.839996,-5.903992c-1.835999,-1.835999 -3.276001,-3.456009 -4.320007,-5.255997s-1.690994,-3.564011 -1.942993,-5.292007c1.438995,0.251999 2.160004,-0.647995 2.556,-2.556c0.216003,-2.123993 -0.360001,-6.444 -0.612,-9.216003c-0.28801,-2.807999 -0.359009,-5.867996 -0.755997,-7.235992c-0.504013,-1.368011 -1.116013,-1.692001 -1.979004,-0.972c0.070999,-3.276001 -0.251999,-6.444 -0.973007,-9.792007c-0.862991,-3.455994 -2.375992,-7.451996 -3.707993,-10.188004s-2.665016,-4.643982 -4.139999,-5.867996z" fill="#1AA6B6" fill-rule="evenodd" stroke="#000000" stroke-miterlimit="10" stroke-width="0.036" id="svg_89"/>
  <path clip-rule="evenodd" d="m187.481003,131.263c-0.899002,-1.044006 0.972992,-1.511993 5.472992,-1.403992c4.499985,0.071991 11.628006,0.612 21.527023,1.763992c2.771973,2.087997 5.14798,5.436005 7.271973,10.188004c2.052002,4.751999 4.5,11.699997 5.256012,18.215988c0.612,6.444 0.251984,14.184006 -1.368011,20.160004c-1.763977,5.975998 -4.822998,11.736008 -8.604004,14.904007c-3.923981,2.843994 -9.64798,2.556 -14.112,2.735992c-4.463989,0.216003 -8.639984,-0.360001 -12.527985,-1.584l1.188004,-5.651993c0.071991,0.539993 0.395996,1.043991 0.972,1.367996c0.503998,0.324005 1.332001,0.468002 2.339996,0.576004l7.056976,-7.236008c-1.655975,-1.511993 -2.915985,-2.699997 -3.923981,-4.103989c-1.009003,-1.368011 -1.764984,-2.628006 -2.123993,-3.924011c0.503998,0.180008 1.007996,-0.431992 1.367004,-1.979996c0.395996,-1.692001 0.899994,-4.248001 0.972992,-7.236008c-0.108002,-3.059998 -0.756012,-8.279999 -1.368011,-10.367996c-0.64801,-2.195999 -1.547974,-2.87999 -2.555969,-2.339996c0.719971,-4.427994 0.574982,-8.567993 -0.576019,-12.563995c-1.26001,-4.068008 -3.167999,-7.811996 -6.264999,-11.520004z" fill="#1AA6B6" fill-rule="evenodd" stroke="#000000" stroke-miterlimit="10" stroke-width="0.036" id="svg_90"/>
  <path clip-rule="evenodd" d="m112.674004,130.867004l9.179993,-0.395996c1.944,1.799988 3.385002,3.996002 4.717003,6.443985c1.043999,2.448013 2.087997,5.472 2.735001,8.244003c0.684998,2.699997 1.367996,5.112 1.764999,7.632004l-4.319992,0.395996c-0.360001,-3.923996 -1.477005,-7.667999 -3.888,-11.375992c-2.377014,-3.779999 -5.725006,-7.380005 -10.189003,-10.944z" fill="#A1A1A1" fill-rule="evenodd" stroke="#000000" stroke-miterlimit="10" stroke-width="0.036" id="svg_91"/>
  <path clip-rule="evenodd" d="m127.362,159.054993c1.188004,-0.324005 4.570999,-0.540009 5.688004,0.179993c0.936996,0.64801 0.431992,1.835999 0.576004,4.139999c0.071991,2.304001 1.223999,7.667999 0.395996,9.576004c-0.936005,1.764008 -3.996002,1.044006 -5.292007,1.188004c-1.366989,0.035995 -2.231003,0.468002 -2.734993,-0.792007c-0.540001,-1.440002 -0.648003,-4.895996 -0.612,-7.056c-0.108017,-2.304001 0.071999,-4.391998 0.396004,-5.687988c0.178986,-1.223999 0.431,-1.367996 1.582993,-1.548004z" fill="#A1A1A1" fill-rule="evenodd" stroke="#000000" stroke-miterlimit="10" stroke-width="0.036" id="svg_92"/>
  <path clip-rule="evenodd" d="m127.542007,177.451004l5.688004,-0.576004c-0.106995,1.404007 0.287994,2.843994 1.188004,4.320007c0.863998,1.475998 2.231003,2.771988 4.103989,4.283997l-4.103989,5.112c-2.736008,-1.908005 -4.608002,-3.492004 -5.904007,-4.895996s-1.690994,-2.052002 -1.763985,-3.348007c-0.252022,-1.440002 0.143974,-3.024002 0.791985,-4.895996z" fill="#A1A1A1" fill-rule="evenodd" stroke="#000000" stroke-miterlimit="10" stroke-width="0.036" id="svg_93"/>
  <path clip-rule="evenodd" d="m125.382004,186.270996c-0.50399,1.440002 -0.792007,2.807999 -1.152,4.5c-0.288002,1.548004 -0.647011,3.240005 -0.792,5.076004l4.104004,0.395996l1.367996,-6.263992c-0.324005,-0.360001 -0.828003,-0.720001 -1.367996,-1.368011c-0.64801,-0.68399 -1.368004,-1.367996 -2.160004,-2.339996z" fill="#A1A1A1" fill-rule="evenodd" stroke="#000000" stroke-miterlimit="10" stroke-width="0.036" id="svg_94"/>
  <path clip-rule="evenodd" d="m186.869995,177.451004l5.688004,-0.576004c-0.106995,1.404007 0.287994,2.843994 1.188004,4.320007c0.863007,1.475998 2.230988,2.771988 4.104004,4.283997l-4.104004,5.112c-2.664001,-1.908005 -4.572006,-3.492004 -5.867996,-4.895996c-1.368011,-1.404007 -1.584,-2.052002 -1.764008,-3.348007c-0.216995,-1.440002 0.035004,-3.024002 0.755997,-4.895996z" fill="#A1A1A1" fill-rule="evenodd" stroke="#000000" stroke-miterlimit="10" stroke-width="0.036" id="svg_95"/>
  <path clip-rule="evenodd" d="m185.104996,186.847c-0.503998,1.440002 -0.791992,2.807999 -1.151001,4.5c-0.287994,1.619995 -0.647995,3.276001 -0.791992,5.112l4.104004,0.395996l1.367996,-6.263992c-0.324005,-0.360001 -0.828003,-0.720001 -1.367996,-1.367996c-0.64801,-0.64801 -1.369003,-1.440002 -2.161011,-2.376007z" fill="#A1A1A1" fill-rule="evenodd" stroke="#000000" stroke-miterlimit="10" stroke-width="0.036" id="svg_96"/>
  <path clip-rule="evenodd" d="m187.662003,158.479004c1.188004,-0.324005 4.571991,-0.540009 5.688004,0.179993c0.936981,0.684006 0.432999,1.727997 0.575989,4.104004c0.072006,2.268005 1.223999,7.740005 0.396027,9.612c-0.937027,1.835999 -3.996017,0.972 -5.292023,1.151993c-1.367996,0.036011 -2.231995,0.432007 -2.735992,-0.755997c-0.540009,-1.440002 -0.685013,-4.895996 -0.576004,-7.056c-0.108002,-2.304001 0.071991,-4.391998 0.395996,-5.688004c0.216003,-1.223999 0.360001,-1.367996 1.548004,-1.547989z" fill="#A1A1A1" fill-rule="evenodd" stroke="#000000" stroke-miterlimit="10" stroke-width="0.036" id="svg_97"/>
  <path clip-rule="evenodd" d="m177.078003,131.046997l6.875992,0.395996c1.800003,1.800003 3.492004,3.996002 4.680008,6.444c1.151993,2.448013 2.195999,5.328003 2.735992,8.244003c0.503998,2.880005 0.899002,5.688004 0.792007,8.820007l-5.076004,0.179993c0.287994,-4.535995 -0.324005,-8.639999 -1.979996,-12.707993c-1.727997,-4.068008 -4.356003,-7.812012 -8.028,-11.376007z" fill="#A1A1A1" fill-rule="evenodd" stroke="#000000" stroke-miterlimit="10" stroke-width="0.036" id="svg_98"/>
  <path clip-rule="evenodd" d="m87.617996,158.658997c-0.395996,-7.451996 -1.331985,-13.21199 -2.951996,-17.423996c-1.584,-4.248001 -3.528,-7.091995 -6.660004,-7.848007c-3.348007,-0.863983 -9.576004,-1.115997 -12.708,3.132004c-3.167995,4.283997 -5.183998,14.544006 -5.903996,22.320007c-0.612,7.73999 0.071999,17.459991 1.764,23.723999c1.655998,6.119995 4.139996,10.332001 7.452,12.923996c3.059998,2.556 8.171997,5.147995 11.159988,2.339996c2.952011,-3.059998 5.796021,-12.815994 6.444,-19.979996c0.323997,-7.307999 -1.29599,-17.100006 -3.311981,-23.112c-2.051994,-6.119995 -5.436005,-11.591995 -8.208008,-12.923996c-2.807999,-1.332001 -6.660004,-0.072006 -8.244003,5.291992c-1.655998,5.400009 -2.015999,19.367996 -1.367996,26.639999c0.575996,7.128006 2.339996,15.444 4.895996,16.056c2.556,0.468002 8.891991,-7.127991 9.972,-12.923996c0.755997,-5.975998 -2.663986,-18.324005 -4.283997,-21.923996c-1.692001,-3.600006 -4.104004,-3.276001 -4.896011,0.395996c-0.755981,3.636002 -0.575989,19.259995 0.396011,21.311996c0.792007,1.980011 4.391998,-8.388 4.680008,-9.576004c0.179993,-1.331985 -2.772011,2.880005 -3.312012,1.944c-0.755997,-1.187988 -0.828003,-7.199997 -0.216003,-8.028c0.684006,-0.755997 3.240005,1.188004 3.924004,3.348007c0.432014,2.016006 0.036003,6.119995 -0.792,8.820007c-0.899994,2.627991 -2.916,7.559998 -4.103989,7.019989c-1.296005,-0.755997 -2.808022,-6.371994 -3.132019,-11.160004c-0.32399,-4.859985 0.072021,-14.327988 1.188019,-17.423996c0.971985,-3.167999 3.131989,-3.744003 5.075989,-1.151993c1.980011,2.519989 5.436005,10.763992 6.480011,16.416c0.899994,5.615997 0.755981,12.743988 -1.008011,17.063995c-2.016006,4.283997 -7.487984,8.460007 -10.152,8.208008c-2.663994,-0.540009 -4.355995,-4.968002 -5.507996,-10.764008c-1.332001,-6.011993 -1.799999,-17.423996 -1.548,-24.084c0.287998,-6.731995 1.368,-12.240005 3.527988,-15.264008c2.196014,-3.023987 6.767998,-3.599991 9.396011,-2.556c2.412003,0.936005 4.031998,5.040009 5.687996,8.424011c1.620003,3.167999 2.988014,6.947998 4.104012,11.339996c1.043991,4.5 1.871994,9.468002 2.339989,15.300003c-0.036003,-5.292007 -0.107994,-10.584 -0.18,-15.876007z" fill="#1AA6B6" fill-rule="evenodd" stroke="#000000" stroke-miterlimit="10" stroke-width="0.036" id="svg_99"/>
 </g>
</svg>