<?xml version="1.0"?><svg width="640" height="480" xmlns="http://www.w3.org/2000/svg" xmlns:xlink="http://www.w3.org/1999/xlink">
 <defs>
  <symbol id="svg_33">
   <title>hibiscus</title>
   <metadata id="svg_32">image/svg+xml</metadata>
   <g id="svg_2">
    <title>Layer 1</title>
    <g transform="rotate(-27.537599563598633 229.511993408203,221.66600036621097) " id="svg_26" fill="#89a02c">
     <g id="svg_27" fill="#89a02c">
      <g id="svg_28" fill="#89a02c">
       <g id="svg_29" fill="#89a02c">
        <path id="svg_30" d="m257.006378,216.31134c-4.160095,-3.230698 -8.876556,-6.89238 -15.451828,-7.719009c-1.209442,-0.152435 -1.318466,-0.424484 -1.319443,-0.427307l0,-0.002808c0,-0.013062 0.019257,-0.066345 0.128296,-0.14679c1.437088,-1.075348 12.514771,-2.251663 27.959808,6.329468c2.381439,1.324066 3.734619,3.882431 3.016052,5.702133c-0.606659,1.536285 -2.536743,2.089828 -5.294281,1.519485c-3.09903,-0.643326 -5.984985,-2.883774 -9.038605,-5.255142m-37.455643,14.608612c4.104111,-0.330093 14.566284,-0.326324 23.060028,6.824127c2.885849,2.431213 4.045181,4.992355 3.100876,6.85318c-0.907608,1.785965 -3.616013,2.523727 -6.904053,1.879486c-3.694168,-0.722839 -6.442032,-3.471954 -9.352051,-6.381897c-3.938202,-3.938507 -8.013443,-8.006989 -15.054428,-8.195847c0.648163,-0.284317 2.363113,-0.754639 5.149628,-0.97905m-13.336517,30.230865c-1.527863,-1.211884 -2.734421,-2.170288 -2.901306,-3.33728c-0.031845,-0.213165 0.046265,-0.377808 0.245956,-0.51709c1.06868,-0.750854 4.743561,-0.356293 8.510986,1.428833c2.997772,1.42041 10.006973,5.698303 10.329147,14.718964c0.044327,1.293152 -1.954147,3.780487 -4.080887,4.045135c-2.020691,0.250519 -3.590958,-1.585938 -4.422348,-5.172852c-1.438171,-6.210815 -5.046494,-9.07489 -7.681488,-11.16571m-44.733032,-53.306564l-0.005798,0l0.005798,0zm83.352753,-40.237976c-1.334885,4.529495 -2.596466,8.809326 -4.54776,12.455154c-3.705658,6.920456 -6.95137,8.455872 -8.6026,7.668518c-2.262802,-1.079056 -2.710419,-6.398712 0.511139,-13.112518c6.623444,-13.813812 5.856674,-25.001923 -2.159576,-31.501633c-0.072311,-0.058899 -0.172653,-0.07106 -0.257507,-0.031799c-38.601486,17.695297 -26.933517,45.472519 -22.54007,55.929413l0.913406,2.249771c1.836502,5.008255 0.929749,8.908401 -0.783264,10.553238c-1.01564,0.973434 -2.301285,1.221222 -3.720093,0.716263c-3.366211,-1.199722 -3.866852,-8.101486 -4.444611,-16.092575c-0.634613,-8.770096 -1.426575,-19.68425 -6.391953,-26.729065c-3.39032,-4.809082 -11.952515,-7.27858 -26.177292,-7.547913c-0.102249,-0.001877 -0.195847,0.059845 -0.230515,0.153351c-10.277115,27.205887 -4.408936,36.293884 14.981049,55.329132c7.117249,6.984955 7.196335,7.23465 9.231537,13.62587l0.424408,1.325943c0.656815,2.045929 0.462036,3.746872 -0.546967,4.789459c-0.898911,0.927567 -2.413223,1.277298 -3.954559,0.912643c-1.93869,-0.458191 -3.425018,-1.859894 -3.976685,-3.749649c-7.615921,-26.087555 -19.905014,-26.705627 -21.021957,-26.706528c-6.903137,-4.563156 -22.81308,1.739166 -26.096375,4.183456c-0.089676,0.068283 -0.119553,0.187943 -0.069443,0.288025c1.082291,2.169373 6.406418,20.14238 6.459442,20.322815c5.716827,15.102371 10.926224,17.990753 17.664474,20.423813c4.700073,1.69812 8.858185,1.723358 14.355057,0.085144c7.999802,-2.380661 11.408478,0.965912 13.240097,2.763123c0.752289,0.738678 1.296341,1.272583 1.807526,0.850006c0.183273,-0.15155 0.37912,-0.449829 0.277802,-1.013702c-0.358826,-2.005707 -4.287369,-6.222855 -11.579178,-8.901825c-13.259445,-4.878326 -21.374969,-15.177139 -23.375412,-20.522018c-0.404175,-1.080032 -0.423462,-1.679428 -0.306747,-1.881424c0.338608,-0.583496 1.011841,-0.900467 2.002335,-0.940659c5.11586,-0.208511 17.691467,7.267349 26.546768,19.917953c2.836731,4.049835 5.565353,5.88533 8.11174,5.454239c4.166794,-0.705887 6.158554,-7.085983 6.669769,-9.024353c1.700439,-6.447266 -0.476517,-18.265701 -11.684357,-32.100937c-7.671906,-9.475983 -9.836227,-20.196609 -8.600723,-26.147415c0.372345,-1.792526 1.036896,-3.02774 1.87117,-3.477539c0.366562,-0.197281 0.84877,-0.144974 1.432358,0.158035c4.858292,2.519073 14.18631,20.32753 14.71489,26.659805c1.503616,18.068344 7.356445,20.890427 9.114777,21.325241c1.654175,0.408646 3.266846,-0.206619 4.212158,-1.602692c11.555984,-17.127701 8.049973,-29.911972 5.730255,-38.370636c-0.616379,-2.247879 -1.148743,-4.188171 -1.35611,-5.919907c-0.878769,-7.36087 5.579727,-17.629822 8.490723,-19.529892c0.436035,-0.284256 0.785126,-0.383347 0.981888,-0.278625c1.429428,0.760223 1.383194,7.914444 1.004105,12.538376c-0.020248,1.411972 -0.745667,4.139557 -1.583771,7.297318c-1.946442,7.329086 -4.613342,17.367081 -1.496948,21.575806c0.881577,1.190369 2.182678,1.855179 3.86676,1.974854c11.453812,0.815399 20.59758,-17.940231 23.127441,-23.708694l0.960785,-2.230148c2.621521,-6.125702 7.500092,-17.527908 10.993774,-18.501343c0.463806,-0.129044 0.875702,-0.062668 1.261536,0.202896c3.211853,2.21611 -4.006683,13.042358 -7.090271,17.66539l-1.460297,2.250702c-1.040771,1.792542 -2.195221,4.867065 -1.117889,5.989151c0.557465,0.579758 1.569275,0.538605 3.010223,-0.119675c32.549103,-14.87793 45.587646,-9.535843 46.966919,-8.877579c0.602814,0.287064 0.806335,0.48436 0.887299,0.594696c-0.232483,0.013062 -0.707977,-0.033676 -1.225952,-0.085083c-15.294556,-1.558762 -34.480865,4.946487 -57.025864,19.33255c-33.575272,21.425323 -45.908752,54.345428 -50.273178,72.061295c-0.623077,2.512543 0.775452,4.000244 1.406296,4.522858c0.995361,0.826691 2.254059,1.146515 3.129898,0.795807c0.576752,-0.230011 0.924057,-0.730225 0.980927,-1.406342c0.051117,-0.592834 0.490921,-1.953339 1.53064,-2.37793c0.819916,-0.334717 1.847107,-0.015808 3.04599,0.947266c1.443939,1.156677 1.184433,3.573853 0.857544,6.635284c-0.432129,4.040497 -0.969452,9.068298 2.255966,13.56134c4.438782,6.188324 10.318481,9.887451 17.477295,10.993622c9.647247,1.490509 18.575867,-2.281586 21.388489,-4.341553c0.061691,-0.044922 0.100204,-0.112152 0.100204,-0.186096c-0.000931,-0.073853 -0.033691,-0.140228 -0.095444,-0.184174l-0.681,-0.483459c-2.545349,-1.753296 -7.284073,-5.018463 -7.358322,-19.754303c-0.07814,-15.96817 -13.53717,-26.799164 -20.429672,-27.887512c-3.442444,-0.54425 -5.61647,-1.571884 -6.646606,-3.139984c-0.793777,-1.20903 -0.905685,-2.737885 -0.343384,-4.674484c0.380066,-1.310944 1.148743,-2.192688 2.28302,-2.619995c2.020691,-0.760208 5.179596,-0.036484 8.455124,1.936508c2.139297,1.287643 4.69722,5.001678 7.659332,9.30307c4.795547,6.962524 10.762177,15.627869 18.776489,20.161987c13.068451,7.396393 29.840637,-8.330505 30.008484,-8.490448c0.078033,-0.073853 0.095459,-0.189728 0.041443,-0.281433c-0.053986,-0.09256 -0.164948,-0.138397 -0.270996,-0.111237c-3.061432,0.773285 -5.221008,-3.571045 -8.211029,-9.582657c-5.052216,-10.160461 -12.687469,-25.514297 -31.68866,-25.334839c-10.509613,0.100098 -13.034729,-3.188538 -13.604782,-5.157776c-0.448456,-1.555084 0.75621,-2.86322 1.8452,-3.686096c4.007568,-3.029648 12.829193,-4.483658 17.772385,-1.744858c3.279358,1.816849 7.021744,5.819885 10.985031,10.058578c5.702301,6.099472 11.59848,12.40744 17.276672,13.632355c8.431915,1.820648 14.899048,-1.263199 21.744415,-4.525665l3.010284,-1.416672c0.057739,-0.028107 0.104034,-0.078537 0.125336,-0.140274c0.019257,-0.060776 0.013428,-0.127151 -0.017456,-0.183273c-2.068848,-3.671127 -3.433594,-7.188812 -4.753052,-10.590591c-4.343323,-11.200317 -7.774139,-20.047043 -32.764221,-21.597336c-1.801727,-0.112198 -3.34491,-1.569016 -3.441376,-3.248428c-0.121552,-2.114197 2.019684,-3.757126 5.727264,-4.392975c7.461639,-1.278229 14.381226,0.871506 21.072174,2.948318c7.91684,2.459229 15.394897,4.781952 23.680206,1.921539c7.836792,-2.705139 12.120178,-8.115494 15.247314,-12.064255c1.124634,-1.420334 2.095825,-2.647202 3.061371,-3.565414c0.068451,-0.064514 0.090637,-0.161743 0.057922,-0.247818c-2.085327,-5.527222 -11.482819,-21.451431 -23.297333,-23.860229c-10.664764,-2.172165 -19.623383,4.953064 -26.82077,10.679489c-4.542786,3.613098 -8.465576,6.733414 -11.391968,6.198593c-0.438812,-0.080399 -1.484344,-0.36467 -1.704376,-1.271683c-0.299957,-1.242676 0.828552,-3.807632 7.906281,-8.975769c16.50412,-12.050278 9.096436,-23.825577 8.772369,-24.320221c-0.041412,-0.064499 -0.112762,-0.104736 -0.190948,-0.10849c-23.859528,-1.195038 -28.045593,13.005905 -32.095688,26.740219" fill="url(#svg_31)"/>
       </g>
      </g>
     </g>
    </g>
    <path transform="rotate(0.047787800431251526 120.89600372310778,130.11099243164347) " id="svg_24" d="m34.493999,114.700996c3.6049,-5.696999 12.194099,-4.501999 15.720402,-10.283997c-2.456402,-6.293098 -0.642601,-15.472603 6.541397,-17.670303c9.747704,-3.4786 19.865204,2.174904 26.8424,8.717407c4.8144,3.799095 9.635704,7.786896 15.373405,10.130898c4.414398,-5.248001 -2.2379,-11.212303 -7.094604,-12.909302c-10.569199,-5.513199 -23.1754,-9.089203 -30.261497,-19.382896c-3.116203,-5.256104 1.254898,-14.574001 8.000702,-12.505901c6.5793,0.2318 4.234497,-8.147503 2.269295,-11.410702c0.151901,-6.9659 9.460999,-9.272999 12.601501,-3.1283c5.903404,3.818401 13.979797,-1.623299 19.363998,3.619999c14.629005,12.126701 20.173004,33.200699 15.634003,51.322098c-0.504997,3.007004 -1.942001,7.490005 -3.905998,2.595001c-2.118004,-4.8283 -0.236,-10.6007 -3.190002,-15.180199c-1.878998,-5.111603 -4.072998,-11.995399 -10.278,-12.995399c-5.565201,-0.503601 -6.911598,6.900299 -5.062302,10.983299c2.225304,5.353104 5.705299,10.109604 8.130302,15.393303c0.891998,3.578995 6.098999,8.286995 2.493996,11.324997c-4.342995,2.637001 -8.895599,-1.188995 -12.337395,-3.650002c-3.784302,-4.129997 -12.6651,-3.597 -13.816002,2.618004c1.858711,4.978996 0.453903,10.534996 -5.397499,12.000999c-7.525101,2.593002 -1.245689,12.553993 5.140602,10.346001c8.0336,-1.901001 15.825699,-5.656998 24.242294,-5.667999c3.593002,5.720993 -7.807198,3.563004 -10.751595,6.195999c-12.790703,5.552002 -22.936501,17.212006 -37.411304,18.647003c-6.878799,0.735992 -11.0495,-5.89801 -14.119797,-10.988007c-3.749203,-4.974991 -10.913403,-7.442993 -12.257601,-14.084991c-1.697201,-4.776009 -0.848801,-10.951004 3.5296,-14.03701l-0.000301,0zm108.205006,-7.894997c2.077988,-14.897797 8.304993,-30.099701 20.591995,-39.451698c5.386017,-3.876801 12.365005,-6.134201 18.975998,-4.567001c3.109009,1.447601 2.796005,6.164398 6.208008,7.189697c3.973999,0.058105 7.898987,-2.6688 11.894989,-1.053696c7.644012,2.947197 11.962997,13.019295 7.71701,20.277596c-2.451004,2.230606 -6.775009,5.6464 -4.070007,9.338203c2.734009,3.232903 3.382996,8.580902 0.192001,11.746902c-5.378983,7.105995 -15.425003,9.216995 -23.742996,6.879997c-8.737,-1.621002 -17.809998,-0.794998 -26.242996,1.919998c-2.791,0.470001 -6.395004,2.565002 -8.578003,2.362c-0.359009,-3.922997 4.326996,-4.648994 6.974991,-6.131996c8.761002,-5.099998 18.858002,-8.534004 25.817001,-16.218002c2.275009,-3.1418 0.972,-8.946701 -3.320999,-9.427498c-5.927002,-0.395599 -10.854004,3.4739 -15.848999,6.040001c-4.820999,3.111397 -9.125992,7.134499 -12.134995,12.041496c1.86499,4.800003 -8.19101,2.628998 -4.432999,-0.945999l0,0l0,0zm11.343994,65.153c-5.559006,-11.612 -14.694992,-21.091003 -24.634003,-29.106003c-2.370987,6.238007 3.820007,10.854004 6.06601,16.029999c3.830994,4.736008 -4.269012,12.654007 -7.279007,5.944c-6.905991,2.738007 0.929001,12.617004 -5.640999,16.46701c-5.473991,5.016998 -13.60099,-1.505005 -12.487,-8.040009c-0.742004,-3.992004 6.393997,-10.089996 1.92701,-12.259003c-3.860001,3.516006 -12.037811,5.278 -13.2976,-1.640991c-0.955101,-8.271011 6.8116,-14.591003 14.025589,-16.809006c5.739998,-5.311005 -5.626999,-7.425003 -9.043999,-4.500992c-15.0839,3.470993 -28.077591,14.765991 -33.894402,29.01799c-2.335701,8.039001 1.9673,17.12001 9.223999,21.070999c5.012512,4.85701 15.039513,1.279007 17.8377,8.940002c1.666412,6.572998 5.368698,12.31601 10.916702,16.279007c8.320999,5.895996 21.326996,5.875992 28.248993,-2.195999c3.195007,-7.386002 12.558014,-7.937012 17.484024,-13.493011c4.954987,-7.645996 3.639999,-17.627991 0.546982,-25.703995l0,0l0,0zm56.632004,-4.654999c-2.307007,-5.889008 -7.960007,-9.600998 -13.589996,-11.938995c4.307999,-3.212006 8.80899,-8.969009 6.14801,-14.535004c-6.387024,-12.061005 -20.600021,-17.936005 -33.800018,-17.667999c-10.449982,-0.000999 -20.936005,2.151001 -30.567993,6.14299c-2.884003,3.600006 4.866989,0.036011 6.598999,0.27301c8.532013,-1.188004 17.498993,0.93399 24.617996,5.686005c4.522003,4.439987 -2.160995,5.274994 -5.119995,6.50499c-2.417999,4.522003 5.26799,5.764999 6.848999,9.484009c3.369995,2.916992 2.791992,9.68399 -2.44101,9.742996c-5.79599,0.153 -8.71199,-5.792999 -12.658997,-9.020004c-6.134995,-6.196991 -13.559998,-11.779999 -22.360992,-13.296997c-1.457001,4.095993 5.534988,5.490997 7.07399,8.932999c8.852005,9.024994 14.893005,20.324997 19.516006,31.973007c2.955994,6.843994 8.108002,13.900986 16.084015,14.89299c4.992981,0.910004 11.468979,-1.507004 12.22998,-7.05899c2.777008,-4.422012 9.165009,1.164993 13.307007,-1.850006c5.615997,-1.371002 9.145996,-6.854996 9.071991,-12.445007c0.072006,-1.97699 -0.227997,-3.975998 -0.957993,-5.819992l0,0z" fill="url(#svg_25)"/>
    <path id="svg_22" d="m527.791809,461.493134c-24.11142,5.574738 -49.613647,16.984619 -74.358185,7.810455c-6.005463,1.439972 -26.374451,-4.781281 -12.255829,-9.239288c9.139923,-3.534363 31.014343,-1.609131 32.631317,-3.65506c-10.304962,-2.756805 -28.295441,0.863342 -34.061554,-1.605133c27.02774,-15.727417 63.747589,-12.756165 88.04425,6.689026zm6.925537,-44.107788c-14.345825,11.715729 -30.79129,26.802246 -51.068939,23.15274c-8.831116,-2.122192 -26.62027,4.616852 -30.229309,-1.841064c12.580017,-7.885132 27.792542,-9.240875 41.654907,-13.88797c-11.856506,-4.099823 -23.576355,3.324677 -35.381073,3.283386c7.889221,-8.426819 26.787659,-13.536133 40.67984,-14.378021c11.548431,-0.760864 23.229462,0.505127 34.344574,3.670929m5.981201,-34.553101c-14.288452,10.182861 -26.595276,27.138916 -46.045013,26.684692c-7.417877,-2.399414 -23.515686,8.832611 -25.319397,0.671906c11.621216,-7.892303 25.150421,-12.483765 38.70636,-16.013367c-14.053131,1.095245 -27.863739,4.863068 -40.553741,10.877045c18.706787,-18.651794 47.11853,-26.782379 73.211792,-22.220276m-76.17572,-78.714905c13.555115,46.727142 3.541962,98.735931 -23.15509,139.176727c-16.794647,21.819946 -40.586823,37.320984 -65.480988,48.943024c1.021149,-12.597351 15.995941,-13.520966 24.932983,-18.496887c9.50943,-7.549194 18.998596,-15.559021 27.098846,-24.75705c26.380157,-30.863892 39.415344,-71.562042 40.143799,-111.532623c-0.041199,-11.444092 -1.34613,-22.893738 -4.039185,-34.032898l0.290253,0.119141l0.209381,0.580566l0,0zm25.634705,201.678131c-24.895721,-2.100769 -51.663116,0.204956 -74.156067,-12.499664c-13.088562,4.577179 -13.335938,-17.810638 -0.063049,-10.738007c14.991791,-0.814117 29.893829,2.685272 43.773926,8.034454c-14.910919,-10.012939 -33.688049,-11.971497 -51.293671,-11.06366c25.506989,-11.013641 60.189423,-5.72168 76.026093,18.359467c1.998566,2.568542 3.882355,5.221252 5.712769,7.90741l0,0zm-103.108795,-157.750641c26.109283,0.578186 54.088593,17.372284 58.89505,43.994141c5.667511,5.389679 -3.564575,21.287842 -5.328735,7.355438c-5.863129,-12.204987 -14.178406,-23.784149 -25.987976,-31.045776c12.724792,15.990265 25.580536,34.837433 23.614258,56.11734c-4.274445,-19.98053 -21.572845,-32.870941 -34.675995,-47.270386c-7.071014,-8.74292 -12.839569,-18.564453 -16.517365,-29.150757m1.33075,30.861542c23.157501,10.320251 42.701843,34.695251 38.168701,60.731812c-9.939575,-5.322906 -4.166168,-28.671021 -16.025848,-27.536865c4.367432,10.869904 7.080719,22.55069 5.466187,34.334717c-0.499695,5.66449 -5.129059,20.375275 -5.158966,7.456268c-4.443451,-25.88327 -23.915039,-47.901794 -22.450897,-74.985931m-20.774048,20.976471c18.701111,11.166107 37.113586,29.897308 35.182892,53.021454c3.554138,7.951843 -12.990784,21.731049 -8.93457,6.515076c1.633148,-11.340057 -4.981079,-30.471558 -9.246674,-34.755646c6.705597,15.108704 5.766144,32.234741 2.465088,48.038391c0.607971,-24.594208 -24.402557,-42.970428 -19.888763,-68.109467l0.168152,-2.358856l0.256287,-2.350952m182.621094,-42.737701c-18.020447,10.172546 -35.415039,23.267059 -56.576385,26.124695c-4.635834,4.71698 -21.973053,4.352448 -8.860931,-2.477203c6.354706,-5.631897 26.601624,-12.191437 25.558594,-15.158691c-11.342163,2.685272 -21.702209,8.187714 -32.827759,11.523499c16.786652,-20.035339 47.700745,-33.718384 72.706482,-20.012299l0,0zm-13.127502,-36.209137c-15.422607,20.025055 -37.90741,32.881287 -59.383331,45.701813c7.947449,-13.964996 21.618225,-23.299652 34.296051,-32.771637c-10.874969,-0.221619 -21.755554,21.74054 -29.003662,13.912567c9.210236,-19.795471 33.406616,-27.548767 54.090942,-26.842743l0,0zm-4.121582,-37.908508c-1.758423,18.523682 -15.482544,34.289215 -32.489044,41.581085c-7.603027,4.091858 -17.306488,17.020447 -21.490417,18.152985c5.113617,-13.974518 15.974884,-24.705383 25.408386,-35.932709c-11.708527,5.059265 -16.576538,18.566772 -28.382843,23.48468c3.018951,-26.980896 29.833221,-47.841797 56.953918,-47.286041l0,0zm-30.683685,-27.073395c0.256226,16.112152 -5.025574,33.051147 -17.331573,44.200836c-0.181946,7.98761 -13.071625,11.815796 -6.610199,0.846619c1.997772,-4.408783 7.231079,-15.427948 3.926025,-15.904785c0.318512,5.868866 -11.647095,18.963379 -8.827087,5.580566c3.735229,-15.04425 14.957855,-27.706665 28.842834,-34.723236zm-55.446899,-19.02095c15.134094,5.279648 28.676208,20.764999 24.968506,37.301895c4.090942,6.206543 -9.674347,12.930267 -5.268921,3.230469c1.946014,-5.856506 -9.943542,-25.910919 -4.605133,-10.281342c3.662445,4.741241 1.533691,25.761505 -4.529175,13.867615c-6.258484,-13.811859 -12.780487,-28.636414 -10.565277,-44.118637l0,0zm-50.207855,86.858139c29.185577,-1.675812 57.171356,22.12738 59.758514,50.71582c-5.90033,-8.893829 -15.448578,-25.70459 -21.749084,-27.586121c10.171539,11.997681 16.628906,26.656036 20.438538,41.719482c-11.18866,-19.045685 -29.236542,-32.633453 -45.826691,-46.787506c-4.762756,-5.627136 -8.654022,-11.888092 -12.621277,-18.061676l0,0zm66.523926,20.268829c-9.449585,-11.210602 -18.31543,-23.991364 -32.217377,-30.242004c13.842896,11.744324 24.69281,27.224731 29.557465,44.642303c-11.699615,-16.67099 -28.972931,-28.201691 -44.105408,-41.50589c-10.789246,-6.724762 -7.802704,-26.198547 6.81073,-17.901215c19.934814,7.280731 33.265991,25.879333 39.95459,45.006805zm-51.046234,-76.123505c26.129517,0.5755 49.551331,23.531769 49.915161,49.256195c-5.554321,-4.952026 -13.127411,-21.964508 -17.365479,-19.954315c3.355194,5.180817 14.899597,19.230774 10.147339,20.997162c-13.177582,-12.549683 -32.985504,-20.810486 -37.884094,-39.76709c-1.61618,-3.504028 -3.674591,-6.829315 -4.812927,-10.531952l0,0z" fill="url(#svg_23)" transform="rotate(56.550899505615234 458.42599487304693,371.36499023437494) "/>
    <path id="svg_20" d="m109.165009,376.70285c-6.681496,-5.453552 -6.490082,-20.510223 -19.063286,-15.142822c-12.139259,-1.360535 -15.042313,-16.223145 -9.310913,-25.039459c4.902718,-9.776733 14.558968,-16.551056 18.620903,-26.806213c-9.558044,-5.074982 -14.400459,7.837006 -17.344856,14.447144c-4.646255,9.525818 -9.25708,21.07193 -19.983788,25.3508c-12.389839,3.769135 -7.898518,-16.298431 -17.929058,-12.661957c-10.119061,3.433594 -16.275782,-7.396423 -7.723671,-13.413055c0.177391,-10.735382 1.409199,-22.182007 13.022751,-27.343506c14.348301,-9.527252 33.459797,-12.02063 49.814518,-6.231232c-7.68708,7.295258 -21.138588,2.992645 -28.977158,10.828461c-8.03981,8.267242 4.990967,16.690491 12.283722,9.369812c7.817146,-1.999695 21.480614,-17.001343 25.997437,-5.658356c-3.924446,7.075653 -14.57058,22.616333 1.091522,23.268829c9.894989,-3.428558 10.992752,15.743866 19.359924,6.378723c5.182663,-9.235199 -4.143654,-17.619049 -4.525223,-26.938843c2.4673,-11.007294 5.685104,5.289917 7.684769,9.171936c6.251221,13.313568 20.164124,24.486938 18.544891,40.416412c-4.436996,9.111542 -15.817291,12.25 -21.041138,20.967621c-5.826683,4.465698 -15.651398,5.35141 -20.521469,-0.964294l0.000122,0zm-8.456451,-112.419037c-19.346291,-2.537781 -40.575668,-12.031937 -47.292496,-31.241959c-4.71513,-10.66684 11.731407,-14.235886 6.257729,-23.764328c-0.63332,-11.884674 15.59272,-19.597153 24.358551,-10.888062c7.323372,7.488449 16.592438,-6.000763 23.193466,4.348221c8.123085,8.30098 4.810646,19.676895 3.723976,29.661575c-0.29039,9.198547 1.883469,18.318771 5.208534,26.882507c-6.400284,2.431152 -8.476868,-12.710251 -12.785034,-16.968735c-3.56469,-6.897461 -8.543312,-18.475189 -18.53904,-15.000046c-6.717705,7.032913 2.903847,16.250641 6.035446,23.129486c2.570847,4.156967 19.794296,12.812897 9.838997,13.841278l0,0l-0.00013,0.000061zm69.782242,-11.785843c-12.43396,5.780991 -22.593674,15.263351 -31.173828,25.593826c9.32019,3.755554 15.905289,-11.70697 24.794693,-5.677124c2.049026,4.902313 -2.931122,11.076599 6.150742,10.026398c11.624771,-3.967896 17.266403,13.552368 4.71933,15.291107c-6.552689,1.83844 -18.973511,-7.463715 -13.644836,3.816833c3.508835,12.543762 -16.165344,9.832153 -18.470551,0.576538c-2.087143,-5.148346 -9.751892,-12.229126 -9.934753,-2.331787c0.928146,9.288788 6.042313,17.980835 11.739548,25.356903c6.817062,7.813995 16.229858,15.53186 27.283569,15.480194c11.835846,-1.081818 19.673141,-12.428528 20.250854,-23.297668c4.683624,-8.641479 17.967056,-7.191803 22.5289,-16.500275c6.976852,-9.332642 6.362167,-25.1745 -4.909622,-31.125031c-7.11676,-7.514008 -10.344009,-21.75766 -23.743744,-20.049789c-5.333252,-0.170486 -10.624695,1.017395 -15.590164,2.839813l-0.000137,0.000061zm-4.98587,-58.837601c-8.969238,1.063293 -10.595505,19.524658 -18.727264,8.655685c-9.713257,-5.451752 -18.436615,4.585083 -22.946045,11.920227c-8.999741,16.143143 -6.09079,35.831528 0.250214,52.30867c5.155487,4.409302 -1.078262,-8.318054 0.710205,-11.033752c0.880844,-6.683868 1.946732,-19.960663 10.136642,-20.60556c2.189682,5.554459 7.977448,9.893005 10.08577,1.303116c5.780884,-9.183792 20.834305,-0.104996 10.063965,7.520035c-7.58989,8.368713 -18.9729,16.654388 -19.52153,28.482941c7.214966,-1.215729 12.384109,-12.746948 20.647598,-15.799561c9.370193,-6.447433 20.618011,-9.542343 30.32106,-15.287949c10.179749,-6.364822 11.035461,-21.329575 0.025116,-26.42627c-0.0811,-10.27095 -3.217285,-24.510742 -17.361801,-21.920685l-1.872894,0.344147l-1.810913,0.538956l0,0l-0.000122,0z" fill="url(#svg_21)"/>
    <path d="m18.088011,297.016449c-3.717531,-2.959778 -14.253661,2.030212 -12.174801,-6.265869c-2.13513,-3.793396 -9.83649,-7.59259 -3.39716,-11.838745c4.82691,-3.11145 -1.30432,-9.181274 4.51953,-11.785767c3.99201,-3.497314 6.58185,1.763489 4.43146,5.058777c1.29712,7.265503 10.61646,5.888489 15.278319,2.848633c4.70105,-1.519653 2.442261,-6.287109 -1.71472,-5.806824c-6.400389,-1.805725 -0.35767,-10.814392 3.633421,-5.286682c1.459959,5.340576 6.771608,10.183411 12.06922,6.136414c3.696411,-2.416138 0.571159,-5.577209 -2.677132,-5.742188c-4.736938,-2.048767 -1.50415,-10.816483 2.84827,-6.593689c2.14233,4.580322 4.588741,12.66394 11.295532,9.712036c4.567139,-2.503357 -0.28577,-6.603149 -2.919071,-7.985413c-3.21862,-5.493546 7.15332,-8.396378 6.119881,-1.471741c-0.756592,7.027283 6.10437,9.11499 11.735722,7.571533c10.293701,-1.256897 20.780754,-0.081604 30.846916,2.247803c9.881592,2.532959 19.689819,6.87561 26.989014,14.130615c3.532104,5.664124 -3.172119,13.827209 -9.433594,11.176941c-7.399895,-1.772705 -12.91333,-7.560059 -19.994141,-10.117004c-13.12793,-6.39209 -27.479858,-10.956482 -42.201908,-10.909668c-6.893669,1.249084 0.361942,11.694885 -6.201778,12.976868c-6.135372,-0.908875 -2.579952,-9.071716 0.46777,-10.695984c-2.368401,-4.9552 -11.773552,-0.724182 -11.29528,4.409912c0.879391,3.974243 -0.17054,11.55249 -5.68799,7.398926c-4.272221,-4.50354 5.911619,-5.993958 3.16321,-10.173828c-4.432991,-2.616211 -9.442511,2.545471 -12.682501,5.306763c-4.734369,4.802002 3.596931,9.451416 1.220581,14.460999c-1.007931,1.271729 -2.726931,1.531189 -4.23877,1.237183z" id="svg_18" fill="url(#svg_19)"/>
    <path d="m186.555664,361.313019c3.685791,-5.840759 12.467651,-4.615479 16.072998,-10.543823c-2.511475,-6.45166 -0.656982,-15.862488 6.688232,-18.115662c9.966309,-3.566284 20.310791,2.229797 27.44458,8.937195c4.922363,3.894836 9.851807,7.983459 15.718262,10.386597c4.512939,-5.38031 -2.288086,-11.4953 -7.253784,-13.235107c-10.806274,-5.652161 -23.695313,-9.318298 -30.94043,-19.87146c-3.186035,-5.38855 1.283081,-14.941345 8.180298,-12.821106c6.726807,0.23761 4.329468,-8.352905 2.32019,-11.698364c0.155273,-7.141479 9.673218,-9.506775 12.884155,-3.207214c6.035889,3.914734 14.293457,-1.664185 19.798828,3.711304c14.956421,12.432373 20.624756,34.037659 15.984131,52.616089c-0.515625,3.082031 -1.985352,7.678833 -3.99292,2.660156c-2.16626,-4.950073 -0.241821,-10.86792 -3.262207,-15.562866c-1.921143,-5.240417 -4.163818,-12.297791 -10.508911,-13.322998c-5.689575,-0.516296 -7.066162,7.074219 -5.175415,11.260132c2.275269,5.488098 5.833252,10.364502 8.312744,15.78125c0.911499,3.669128 6.235718,8.49646 2.549561,11.611084c-4.439697,2.70343 -9.094849,-1.219849 -12.61377,-3.742371c-3.869263,-4.234558 -12.949219,-3.68811 -14.125977,2.683533c1.900391,5.104492 0.464111,10.801331 -5.518555,12.303894c-7.69397,2.658325 -1.273682,12.870239 5.255859,10.606567c8.213867,-1.948792 16.180786,-5.799133 24.785889,-5.811157c3.674194,5.865601 -7.982056,3.652832 -10.992554,6.352966c-13.077637,5.691284 -23.45105,17.645508 -38.25061,19.117004c-7.033081,0.7547 -11.297363,-6.046997 -14.436523,-11.265503c-3.833252,-5.09967 -11.158203,-7.630188 -12.532593,-14.439331c-1.735229,-4.896912 -0.867798,-11.227051 3.608765,-14.39093l-0.000244,0.000122zm110.632568,-8.094421c2.124878,-15.273376 8.491089,-30.858582 21.053711,-40.446289c5.506714,-3.974548 12.642822,-6.288818 19.401733,-4.682068c3.178711,1.484009 2.859253,6.319702 6.347046,7.370911c4.063232,0.05957 8.07666,-2.736084 12.161865,-1.080322c7.81543,3.021484 12.231689,13.347534 7.890869,20.788757c-2.506348,2.286926 -6.927368,5.788818 -4.161743,9.573669c2.795044,3.314453 3.45874,8.796875 0.195923,12.043457c-5.499512,7.285034 -15.770874,9.448608 -24.274902,7.052917c-8.933716,-1.662292 -18.210327,-0.815491 -26.832153,1.968445c-2.853882,0.481873 -6.538574,2.629639 -8.770508,2.421814c-0.36731,-4.02179 4.424438,-4.766235 7.131958,-6.286987c8.956909,-5.228821 19.281006,-8.749146 26.395752,-16.626648c2.326538,-3.221069 0.993896,-9.172241 -3.39502,-9.665222c-6.060059,-0.405579 -11.098267,3.561523 -16.205444,6.192322c-4.928711,3.189819 -9.3302,7.314514 -12.40686,12.345032c1.90686,4.921021 -8.374268,2.695313 -4.532227,-0.969971l0,0.000183zm11.598511,66.79541c-5.68396,-11.905273 -15.024902,-21.62262 -25.187134,-29.839478c-2.423706,6.39447 3.906128,11.127502 6.202026,16.433899c3.916992,4.855286 -4.36438,12.973206 -7.441895,6.094177c-7.060913,2.806519 0.949829,12.934082 -5.767334,16.881714c-5.597046,5.143616 -13.906006,-1.543518 -12.767456,-8.242798c-0.758179,-4.092896 6.53772,-10.344788 1.970337,-12.567871c-3.946777,3.604187 -12.307861,5.410522 -13.595947,-1.682678c-0.97644,-8.47937 6.9646,-14.959106 14.339844,-17.232178c5.869141,-5.445068 -5.752563,-7.612732 -9.246948,-4.614441c-15.421753,3.558044 -28.707031,15.138245 -34.654297,29.748901c-2.388062,8.242188 2.011475,17.55188 9.430908,21.602173c5.125,4.979309 15.376953,1.311218 18.237915,9.1651c1.703735,6.738831 5.48877,12.627319 11.161865,16.689514c8.507202,6.04541 21.805176,6.02417 28.88208,-2.250671c3.26709,-7.572388 12.84021,-8.137024 17.876343,-13.833618c5.06665,-7.838806 3.72229,-18.072693 0.559692,-26.351624l0,-0.000122zm57.902344,-4.772522c-2.358276,-6.03717 -8.138428,-9.842712 -13.89502,-12.23999c4.404907,-3.293091 9.006958,-9.19458 6.285767,-14.900818c-6.530029,-12.365967 -21.061523,-18.389038 -34.558105,-18.114258c-10.684326,-0.000977 -21.405396,2.205933 -31.253662,6.298096c-2.948853,3.691284 4.976196,0.037476 6.746826,0.28009c8.723389,-1.21759 17.89209,0.957031 25.170776,5.829224c4.623047,4.551636 -2.209839,5.408142 -5.235107,6.669128c-2.472656,4.636292 5.385864,5.910217 7.002563,9.723083c3.445801,2.990112 2.854248,9.927673 -2.495483,9.988708c-5.926636,0.156189 -8.907349,-5.938721 -12.943604,-9.247498c-6.272339,-6.353699 -13.864014,-12.077271 -22.862183,-13.632629c-1.48999,4.199097 5.658691,5.629272 7.233032,9.158691c9.050293,9.252075 15.226318,20.836792 19.953613,32.778625c3.021729,7.01709 8.290039,14.252014 16.444824,15.269104c5.104614,0.932617 11.72583,-1.545227 12.503784,-7.237c2.839844,-4.533997 9.370728,1.193604 13.605469,-1.896606c5.742432,-1.405884 9.351196,-7.028015 9.276245,-12.758911c0.072998,-2.026917 -0.233765,-4.076721 -0.979858,-5.967102l0.000122,0.000061z" id="svg_16" fill="url(#svg_17)"/>
    <path id="svg_14" d="m263.313965,271.522614c2.959839,-3.717407 -2.030151,-14.253601 6.265869,-12.174744c3.793457,-2.135132 7.592651,-9.836502 11.838867,-3.397186c3.111328,4.826935 9.181152,-1.304321 11.785645,4.519562c3.497437,3.991943 -1.763428,6.581787 -5.058716,4.431396c-7.265503,1.297119 -5.888428,10.616577 -2.848633,15.27832c1.519653,4.70105 6.287109,2.442322 5.806763,-1.714661c1.805786,-6.400391 10.814453,-0.357666 5.286743,3.633423c-5.340576,1.4599 -10.18335,6.771545 -6.136353,12.069214c2.416138,3.69635 5.577148,0.571106 5.742188,-2.677185c2.048706,-4.736877 10.816406,-1.504028 6.593628,2.848267c-4.580322,2.142395 -12.66394,4.588745 -9.712036,11.295654c2.503418,4.567017 6.603149,-0.285889 7.985352,-2.919189c5.493652,-3.218506 8.396484,7.153381 1.471802,6.119995c-7.027222,-0.756592 -9.11499,6.104248 -7.571533,11.735657c1.256958,10.293701 0.081665,20.780823 -2.247803,30.846985c-2.532959,9.881531 -6.87561,19.689758 -14.130615,26.988953c-5.664063,3.532104 -13.827271,-3.172119 -11.17688,-9.433594c1.772705,-7.399963 7.560059,-12.913391 10.116943,-19.99408c6.39209,-13.128052 10.956543,-27.479919 10.909668,-42.202026c-1.249023,-6.893616 -11.694946,0.362 -12.976929,-6.201721c0.908936,-6.135437 9.071777,-2.580017 10.696045,0.467834c4.9552,-2.36853 0.724243,-11.773621 -4.409912,-11.295288c-3.974243,0.879272 -11.55249,-0.170593 -7.398926,-5.688049c4.50354,-4.272156 5.994019,5.911682 10.173828,3.163208c2.616211,-4.432983 -2.545532,-9.442444 -5.306763,-12.682495c-4.802002,-4.734436 -9.451416,3.596924 -14.460938,1.220581c-1.271729,-1.007874 -1.53125,-2.726868 -1.237305,-4.238831z" fill="url(#svg_15)"/>
    <path d="m185.48877,392.330597c-11.231689,-1.251831 -21.030518,-9.487122 -24.96521,-19.971741c-2.841187,-6.675903 -5.384888,-13.94751 -4.517212,-21.298889c0.571411,-1.764282 1.062012,-5.664551 2.527222,-2.188904c6.947388,9.951233 15.817505,18.878662 26.771973,24.327087c6.667603,3.391479 14.513672,3.969849 21.749023,2.331787c3.118286,-0.819885 8.778564,-2.769531 6.635864,-6.992554c-1.970215,-3.2052 -6.214111,-3.438049 -9.506714,-4.450684c-9.416626,-1.939697 -19.827759,-1.34198 -28.054688,-7.081787c-4.154663,-2.793701 -7.4198,-6.637146 -10.967163,-10.11853c6.496094,-0.271484 13.763794,-0.910889 18.468384,-5.98114c2.727783,-2.651794 4.237549,-6.270935 6.914185,-8.966003c4.725952,-2.379883 10.129272,0.005981 14.519775,2.065247c6.728516,3.265869 12.551514,8.628601 15.542236,15.564636c3.909546,7.697021 7.190063,15.719238 9.795776,23.948303c0.63147,4.214172 -2.972168,7.492859 -5.88562,9.97229c-9.396851,7.205322 -21.668213,9.447754 -33.265869,9.293274c-1.926514,-0.058228 -3.850342,-0.207275 -5.761963,-0.452454l0,0.000061zm-61.41333,66.85498c-12.294312,-6.732117 -20.997437,-19.805237 -22.056892,-33.836243c-0.859245,-10.242554 1.4795,-21.274597 8.275154,-29.223938c3.107422,-3.393433 7.242546,-5.917969 11.784058,-6.797424c-0.903809,5.722839 -3.91394,10.844788 -4.966072,16.542725c-2.252068,9.194946 -3.452759,19.458435 0.817871,28.263489c1.241089,2.980286 6.223999,9.409973 8.613899,4.243896c1.628906,-5.145386 1.181152,-10.681152 1.481445,-16.016541c0.413208,-12.619263 0.687622,-25.734741 5.857544,-37.477295c2.239136,-4.490051 5.886353,-9.040588 11.043701,-10.052185c4.927368,0.030396 8.11084,4.632141 10.559082,8.344788c6.096069,10.42804 5.050171,23.455505 0.948853,34.39917c-4.716309,13.952454 -15.51001,24.657104 -21.566772,37.912537c-0.353027,4.209839 -4.076538,7.928894 -8.083366,4.921692c-0.918106,-0.373596 -1.815559,-0.795166 -2.708504,-1.224609l0,-0.000061z" id="svg_12" fill="url(#svg_13)"/>
    <path transform="rotate(-4.4837799072265625 131.3549957275392,76.29489898681665) " id="svg_10" d="m111.15509,37.394459c2.781311,-3.221569 -1.9077,-12.352438 5.887932,-10.550859c3.564651,-1.850349 7.134674,-8.524519 11.124794,-2.944069c2.923645,4.183119 8.627365,-1.13035 11.074768,3.91674c3.286469,3.45949 -1.657074,5.703897 -4.753601,3.84033c-6.827271,1.124107 -5.533264,9.20052 -2.676804,13.240471c1.427994,4.074017 5.907883,2.11657 5.456528,-1.485943c1.696838,-5.5467 10.16214,-0.309959 4.96785,3.148781c-5.018448,1.265179 -9.569122,5.868351 -5.766235,10.4594c2.270416,3.203339 5.240753,0.494942 5.395844,-2.320099c1.925125,-4.105049 10.163986,-1.30341 6.195923,2.46838c-4.304047,1.85664 -11.900101,3.976681 -9.126236,9.789021c2.352432,3.957855 6.204849,-0.247765 7.503708,-2.529831c5.162277,-2.789219 7.890015,6.199242 1.383026,5.303696c-6.603378,-0.65567 -8.565216,5.290062 -7.114853,10.170341c1.181152,8.920731 0.076721,18.009041 -2.112213,26.73259c-2.380188,8.563515 -6.460907,17.063492 -13.278297,23.38913c-5.322441,3.060989 -12.993263,-2.749023 -10.502731,-8.175346c1.665779,-6.412933 7.104057,-11.190979 9.506706,-17.327232c6.006546,-11.377022 10.295685,-23.814606 10.251648,-36.573067c-1.173691,-5.97414 -10.989563,0.313705 -12.194214,-5.374523c0.854126,-5.317097 8.524597,-2.235878 10.050903,0.40543c4.656311,-2.052628 0.680557,-10.203239 -4.143921,-9.788708c-3.734528,0.762001 -10.855682,-0.147842 -6.952637,-4.929371c4.231895,-3.702332 5.632462,5.12318 9.560165,2.741291c2.458405,-3.841709 -2.391983,-8.182991 -4.986671,-10.990879c-4.512375,-4.102951 -8.88134,3.117157 -13.588699,1.057777c-1.195023,-0.873447 -1.438889,-2.363148 -1.162682,-3.67345z" fill="url(#svg_11)"/>
   </g>
  </symbol>
  <linearGradient id="SVGID_4_" x1="0" y1="0.5" x2="1" y2="0.5">
   <stop offset="0" stop-opacity="0.26" stop-color="#020202"/>
   <stop offset="1" stop-opacity="0" stop-color="#020202"/>
  </linearGradient>
  <linearGradient id="SVGID_5_" x1="-Infinity" y1="Infinity" x2="-Infinity" y2="Infinity">
   <stop offset="0" stop-color="#020202"/>
   <stop offset="1" stop-color="#020202"/>
  </linearGradient>
  <linearGradient id="svg_9">
   <stop stop-color="#cca041" offset="0"/>
   <stop stop-color="#ce8525" stop-opacity="0.992188" offset="1"/>
  </linearGradient>
  <radialGradient id="svg_21" spreadMethod="pad">
   <stop stop-color="#00bfbf" stop-opacity="0.996094" offset="0"/>
   <stop stop-color="#ff007f" stop-opacity="0.996094" offset="1"/>
  </radialGradient>
  <radialGradient id="svg_17" spreadMethod="pad" cx="0.5" cy="0.5" r="0.5">
   <stop stop-color="#ff5656" stop-opacity="0.996094" offset="0"/>
   <stop stop-color="#7f00ff" stop-opacity="0.996094" offset="1"/>
  </radialGradient>
  <radialGradient id="svg_25" spreadMethod="pad" cx="0.5" cy="0.5" r="0.5">
   <stop stop-color="#7f00ff" offset="0"/>
   <stop stop-color="#f26615" stop-opacity="0.996094" offset="1"/>
  </radialGradient>
  <linearGradient id="svg_31" spreadMethod="pad" x1="0" y1="1">
   <stop stop-color="#89a02c" offset="0"/>
   <stop stop-color="#007f7f" stop-opacity="0.996094" offset="1"/>
  </linearGradient>
  <linearGradient id="svg_23" x1="0" y1="1">
   <stop stop-color="#879e2c" offset="0"/>
   <stop stop-color="#007f7f" stop-opacity="0.996094" offset="1"/>
  </linearGradient>
  <linearGradient id="svg_15" x1="0.476563" y1="1" x2="0.496094" y2="0">
   <stop stop-color="#ed790e" stop-opacity="0.996094" offset="0"/>
   <stop stop-color="#ffff00" stop-opacity="0.996094" offset="1"/>
  </linearGradient>
  <linearGradient id="svg_19" x1="0.472656" y1="1" x2="0.484375" y2="0">
   <stop stop-color="#fc6907" stop-opacity="0.996094" offset="0"/>
   <stop stop-color="#ffff00" stop-opacity="0.996094" offset="1"/>
  </linearGradient>
  <linearGradient id="svg_11" x1="0.472656" y1="1" x2="0.484375" y2="0.007813">
   <stop stop-color="#f76b13" stop-opacity="0.996094" offset="0"/>
   <stop stop-color="#ffff00" stop-opacity="0.996094" offset="1"/>
  </linearGradient>
  <linearGradient id="svg_13" x1="1" y1="0" x2="0" y2="1">
   <stop stop-color="#8ea524" stop-opacity="0.996094" offset="0"/>
   <stop stop-color="#007f7f" stop-opacity="0.996094" offset="1"/>
  </linearGradient>
 </defs>
 <g>
  <title>Layer 1</title>
  <g id="svg_36">
   <path transform="rotate(17.943899154663086 151.5619964599609,248.76800537109375) " fill="url(#svg_9)" d="m151.562042,16.59807c-159.649022,138.596998 -32.455994,442.981916 -25.437996,458.771955s25.437996,-7.017914 25.437996,-7.017914s18.420013,22.807983 25.437988,7.017914s134.210052,-320.174973 -25.437988,-458.771955z" id="svg_1"/>
   <g transform="rotate(17.943899154663086 151.25999450683614,251.34800720214838) " id="Layer_4">
    <path fill="#007f7f" d="m79.752197,305.471954c0,0 56.666992,179.332977 128,67.333008c8.666992,-39.333008 43.33197,-174.000046 -2.666992,-270.667023c-33.333008,-9.333 -117.333008,-2 -119.333008,61.334015c0,38 28.333015,57.666992 52,65.332993s-47.333008,-2 -63.666985,-61.332993c9,-35.667007 21.666985,-70.667015 21.666985,-70.667015s36.667999,-53.333 85.334015,-43.667c16,23.667 42.665985,76.166977 46.165985,126.667007s2.5,113.500015 -21.5,206.000015c-6.5,25.5 -15.5,47 -15.5,47s-61.5,79.999969 -106.5,-98c-1,-6 -4,-29.333008 -4,-29.333008" id="svg_3"/>
   </g>
   <g transform="rotate(17.943899154663086 187.56199645996122,246.7519989013672) " id="Layer_5">
    <path fill="#00ffff" d="m173.433807,206.266342c0,0 -24.5,-4.5 -30,-29.5s13.5,-38.5 25,-42.5s38.5,-5 58,25.5c3.5,21.5 14,97.500015 -4,174.000015c-16,25 -34,26.5 -38.5,27.5c14,-8.5 40.088989,-25.619995 44.5,-69c1.5,-14.75 3.488007,-12.740997 2.25,-21.75c-8.25,-60.000015 -17.75,-87.750015 -32.25,-104.750015c-17,-22.5 -36,-24.5 -45.5,-11s-2,29.5 3.5,37s10.5,11.5 17,14.5z" id="svg_4"/>
   </g>
   <g transform="rotate(17.943899154663086 151.69500732421884,256.0880126953125) " id="Layer_3">
    <path fill="#00bfbf" d="m75.313629,284.170502c0,0 53,196 137,65c12,-67 17,-93.000031 14,-162.000015c-10,-37 -56,-113.332993 -119,-60c-21.666992,19.332993 -38,79 29,102c-25,-8 -88,-47.332993 -35,-115c12,-15 60.333008,-37.667 103,-17c15,43 44.999969,118 0,289.000015c-19,24 -65,101 -127,-78c0,-13 -2,-24 -2,-24" id="svg_5"/>
   </g>
  </g>
  <g id="Outline">
   <path d="m152.437805,14.052c-159.649005,138.597002 -32.455994,442.981936 -25.438004,458.771975s25.438004,-7.017975 25.438004,-7.017975s18.420013,22.808014 25.437988,7.017975s134.210022,-320.174988 -25.437988,-458.771975zm24.382996,450.084993c-6.72699,15.136963 -24.382996,-6.72699 -24.382996,-6.72699s-17.656998,21.862976 -24.384003,6.72699c-6.726006,-15.13501 -128.645993,-306.89801 24.384003,-439.748013c153.028992,132.849987 31.109009,424.613003 24.382996,439.748013z" id="svg_6" fill="black" transform="rotate(17.943899154663086 152.438003540039,246.22099304199224) "/>
  </g>
  <g transform="rotate(17.943899154663086 171.14700317382812,247.02200317382812) " id="Shadows">
   <path fill="url(#SVGID_4_)" d="m155.647003,27.316401l0,433.021612c0,0 31,50.815979 31,-134.184021c0,-114.999985 0,-157.999985 0,-216.999992c-1,-33.999588 -31,-81.837599 -31,-81.837599l0,0l0,0z" id="svg_7"/>
   <path fill="url(#SVGID_5_)" d="m-138.352768,94.154419" id="svg_8"/>
  </g>
  <use x="-1.736693" y="369.524243" transform="matrix(0.575807,0,0,0.600773,1.2111,-6.3102) " xlink:href="#svg_33" id="svg_34"/>
 </g>
</svg>